<svg width="535" height="174" viewBox="0 0 535 174" fill="none" xmlns="http://www.w3.org/2000/svg">
<path d="M508.801 113.745C492.485 113.745 482.726 102.868 482.726 86.925C482.726 70.982 492.485 60.105 508.801 60.105C525.116 60.105 534.876 70.9075 534.876 86.925C534.876 102.942 525.116 113.745 508.801 113.745ZM508.801 101.452C515.58 101.452 519.976 96.0885 519.976 86.925C519.976 77.7615 515.58 72.3975 508.801 72.3975C502.021 72.3975 497.626 77.7615 497.626 86.925C497.626 96.0885 502.021 101.452 508.801 101.452Z" fill="black"/>
<path d="M453.286 113.745C436.97 113.745 427.36 102.868 427.36 86.925C427.36 70.982 436.97 60.105 453.286 60.105C466.621 60.105 475.114 66.2885 477.647 77.836L462.896 80.816C461.63 75.154 457.905 72.2485 453.286 72.2485C446.506 72.2485 442.26 77.687 442.26 86.925C442.26 96.163 446.506 101.601 453.286 101.601C458.128 101.601 462.002 98.4725 463.343 93.034L478.094 96.014C475.487 107.636 466.919 113.745 453.286 113.745Z" fill="black"/>
<path d="M421.585 113H381.355V60.8501H421.585V72.7701H396.255V81.1886H418.605V91.1716H396.255V101.08H421.585V113Z" fill="black"/>
<path d="M349.563 113.745C332.428 113.745 322.594 102.868 322.594 86.925C322.594 70.982 332.279 60.105 348.744 60.105C362.154 60.105 370.274 65.618 372.956 75.9735L358.131 79.028C356.641 73.962 352.841 72.025 348.744 72.025C342.113 72.025 337.494 77.538 337.494 86.925C337.494 96.312 342.039 101.825 349.936 101.825C353.139 101.825 355.821 101.08 358.131 99.441V92.736L349.191 92.289V83.8705H372.286V104.879C366.326 111.212 358.28 113.745 349.563 113.745Z" fill="black"/>
<path d="M319.812 113H304.241L301.634 103.688H283.903L281.295 113H266.097L283.232 60.8501H302.677L319.812 113ZM292.396 73.1426L287.032 92.5126H298.505L293.141 73.1426H292.396Z" fill="black"/>
<path d="M226.221 113H211.693V60.8501H227.338L245.591 91.3206H246.336C246.038 86.7016 245.963 82.6786 245.963 78.4321V60.8501H260.491V113H244.846L226.593 82.5296H225.848C226.146 87.1486 226.221 91.0971 226.221 95.4181V113Z" fill="black"/>
<path d="M174 87C174 135.049 135.049 174 87 174C38.9512 174 0 135.049 0 87C0 38.9512 38.9512 0 87 0C135.049 0 174 38.9512 174 87Z" fill="#5698E3"/>
<path fill-rule="evenodd" clip-rule="evenodd" d="M87.0001 13.291C46.2918 13.291 13.2913 46.2916 13.2913 86.9998C13.2913 127.708 46.2918 160.709 87.0001 160.709C127.708 160.709 160.709 127.708 160.709 86.9998C160.709 46.2916 127.708 13.291 87.0001 13.291ZM10.2913 86.9998C10.2913 44.6347 44.635 10.291 87.0001 10.291C129.365 10.291 163.709 44.6347 163.709 86.9998C163.709 129.365 129.365 163.709 87.0001 163.709C44.635 163.709 10.2913 129.365 10.2913 86.9998Z" fill="#FEFFFF"/>
<path fill-rule="evenodd" clip-rule="evenodd" d="M41 59.5H53.9497C59.4238 59.5 63.8467 63.496 65.4855 68.4359C66.1164 70.3377 66.89 72.2066 67.8002 73.6759C68.7372 75.1886 69.6698 76.0353 70.5164 76.2983C70.79 76.3833 71.2499 76.3959 71.9673 76.1765C72.6739 75.9605 73.5095 75.5559 74.4493 74.9745C76.3282 73.8119 78.4233 72.0687 80.439 70.1841C86.1749 64.8211 93.5794 61.0934 101.627 61.0934H147V64.0934H101.627C94.5243 64.0934 87.819 67.391 82.4879 72.3754C80.4166 74.312 78.154 76.2101 76.0278 77.5256C74.965 78.1832 73.8863 78.7269 72.8445 79.0454C71.8136 79.3606 70.6912 79.494 69.6264 79.1632C67.7322 78.5748 66.3083 76.9644 65.2498 75.2557C64.1645 73.5037 63.3037 71.387 62.6381 69.3804C61.3183 65.4021 57.8716 62.5 53.9497 62.5H41V59.5Z" fill="#FEFFFF"/>
<path fill-rule="evenodd" clip-rule="evenodd" d="M36 73.8682H48.6208C54.9317 73.8682 59.5648 79.1308 60.9939 84.7737C61.9188 88.4262 63.5048 91.2784 65.9697 92.1121C66.9006 92.427 68.0599 92.2653 69.5003 91.4935C70.9358 90.7243 72.463 89.4437 73.9768 87.8756C80.468 81.1515 88.8887 75.4616 98.6634 75.4616H142V78.4616H98.6634C90.0813 78.4616 82.3933 83.4766 76.1352 89.9592C74.5206 91.6317 72.7435 93.1592 70.9172 94.1378C69.0957 95.1138 67.0357 95.6396 65.0085 94.9539C60.9493 93.581 59.0343 89.2564 58.0857 85.5102C56.866 80.694 53.0991 76.8682 48.6208 76.8682H36V73.8682Z" fill="#FEFFFF"/>
<path fill-rule="evenodd" clip-rule="evenodd" d="M31 90.5H44.2547C47.9391 90.5 50.8597 92.462 53.1815 94.9132C55.4748 97.3342 57.3544 100.415 58.9454 103.022L58.9811 103.081C59.746 104.334 60.8753 105.415 62.5711 106.113C63.6639 106.563 64.6662 106.555 65.6283 106.241C69.678 104.92 73.258 102.402 77.0136 99.7614C77.7787 99.2234 78.5511 98.6803 79.3363 98.1411C83.8572 95.0363 88.7693 92.1038 94.6773 92.1038H137V95.1038H94.6773C89.7705 95.1038 85.5315 97.5258 81.0346 100.614C80.3155 101.108 79.588 101.621 78.8503 102.141C75.096 104.787 71.0777 107.619 66.5588 109.093C64.952 109.617 63.2132 109.622 61.4289 108.887C59.1046 107.93 57.4947 106.404 56.4202 104.643C54.7868 101.967 53.0569 99.144 51.0035 96.9763C48.9617 94.8207 46.7752 93.5 44.2547 93.5H31V90.5Z" fill="#FEFFFF"/>
<path fill-rule="evenodd" clip-rule="evenodd" d="M26 104.5H42.7921C50.0175 104.5 54.7073 111.249 55.3163 117.802C55.4585 119.332 55.7608 120.668 56.2517 121.687C56.7331 122.687 57.3527 123.303 58.1289 123.597C58.7279 123.824 59.5153 123.757 60.6011 123.142C61.6906 122.524 62.8837 121.457 64.1092 120.074C70.6866 112.651 79.3792 106.152 89.7915 106.152H132V109.152H89.7915C80.6703 109.152 72.7319 114.867 66.3545 122.064C65.0322 123.556 63.5835 124.9 62.0804 125.752C60.5736 126.606 58.8177 127.067 57.0658 126.403C55.381 125.764 54.2641 124.474 53.5488 122.989C52.8432 121.524 52.4886 119.796 52.3292 118.08C51.8001 112.386 47.8667 107.5 42.7921 107.5H26V104.5Z" fill="#FEFFFF"/>
</svg>
