<svg xmlns="http://www.w3.org/2000/svg" xmlns:xlink="http://www.w3.org/1999/xlink" width="400" height="400" viewBox="0 0 400 400">
  <defs>
    <clipPath id="clip-path">
      <rect id="Rectangle_3284" data-name="Rectangle 3284" width="400" height="400" transform="translate(4987 5751)" fill="#fff" stroke="#707070" stroke-width="1"/>
    </clipPath>
  </defs>
  <g id="Mask_Group_9" data-name="Mask Group 9" transform="translate(-4987 -5751)" clip-path="url(#clip-path)">
    <g id="akakus-logo" transform="translate(4980.865 5745.254)">
      <path id="Path_11352" data-name="Path 11352" d="M188.172,75.577c-42.666,51.65-81.364,106.4-123.489,158.45-14.82,18.3-25.075,37.756-28.993,61.027-3.967-12.861-8.9-25.165-8.328-38.584.311-7.328,4.894-12.837,9.222-18.083,17.878-21.681,34.346-44.453,51.494-66.683,23.485-30.452,47.24-60.691,70.856-91.045,1.221-1.574,2.205-3.336,3.3-5.008,7.246-7.213,12.5-15.386,14.32-25.763a149.419,149.419,0,0,1,6.623-23.731C186.9,42.445,195.632,58.126,188.172,75.577Z" fill="#952025"/>
      <path id="Path_11353" data-name="Path 11353" d="M216.551,78.577c.172,7.23-1.115,13.886-6.033,19.673-28.559,33.575-54.019,69.56-81.2,104.218-16.771,21.386-33.174,43.076-50.125,64.323-8.8,11.041-12.263,24-15.509,37.207-.812,3.3-1.107,6.82-3.664,10.378a184.012,184.012,0,0,1-6.664-30.608c-1.123-9.205,1.664-16.8,7.607-24.3,23.927-30.165,47.281-60.79,70.765-91.307q31.637-41.117,63.1-82.364c1.639-2.148,3.992-3.976,3.8-7.131,3.1-10.787,6.2-21.575,9.681-33.7C212.829,56.642,214.559,67.642,216.551,78.577Z" fill="#952025"/>
      <path id="Path_11354" data-name="Path 11354" d="M340.146,103.414c7.927,19.96,18.288,38.9,25.026,59.363,1.18,3.574,2.467,7.123,3.426,10.763,5.082,19.247-5.894,37.739-25.009,42.281-19.558,4.64-38.657-6.689-43.231-25.583-1.664-6.877-.279-13.427,1.6-20.025,6.148-21.608,16-41.666,25.624-61.822,1.082-2.262,1.992-4.6,2.984-6.9,1.271-2.066,2.541-4.123,4.2-6.82C336.753,97.89,338.45,100.652,340.146,103.414Z" fill="#039347"/>
      <path id="Path_11355" data-name="Path 11355" d="M237.207,74.151c1.336,7.672,2.836,15.329,3.976,23.034a24.741,24.741,0,0,1-5.64,20.411c-32.559,38.772-61.945,80.02-93.2,119.817-12.287,15.64-24.091,31.674-36.748,47.01-9.689,11.746-13.788,25.468-16.952,39.805-.7,3.164-1.779,6.246-3.041,10.6a216.517,216.517,0,0,1-6.894-29.493c-2.139-12.665,3.672-21.64,11.23-31.239,32.247-40.944,63.675-82.528,95.406-123.874,8.582-11.189,16.46-23.017,25.919-33.4C222.887,104.07,227.354,88.8,230.42,72.651c1-2.426,1.992-4.844,3.369-8.2C235.125,68.208,236.166,71.184,237.207,74.151Z" fill="#952025"/>
      <path id="Path_11356" data-name="Path 11356" d="M147.244,75.577l-55.3,71.5q-32.079,41.485-64.175,82.963a24.355,24.355,0,0,1-2.525,2.189c0-10.287-.426-19.476.164-28.6.328-5.066,4.951-8.361,7.91-12.2q43.305-56.253,86.807-112.357c2.254-2.918,3.91-6.3,5.845-9.468,9.738-12.435,22.837-22.558,25.575-39.7,1.213-7.6,4.033-14.951,6.615-24.165,3.525,10.2,4.82,19.247,6.943,28.1,3.32,13.82-1.623,24.3-11.541,33.42C151.048,69.585,149.326,72.782,147.244,75.577Z" fill="#952025"/>
      <path id="Path_11357" data-name="Path 11357" d="M259.315,82.618c3.008,14.206,7.213,25.862,7.156,38.412a23.114,23.114,0,0,1-5.435,15.238c-40.723,49.625-77.979,101.947-118.153,151.974-15.386,19.157-28.337,38.772-31.772,63.9-4.574-12.607-8.181-24.96-7.6-38.059.23-5.14,2.549-9.509,5.746-13.648Q177.6,212.026,245.822,123.538c3.107-4.017,4-8.591,5.213-13.156C253.315,101.75,255.208,93,259.315,82.618Z" fill="#952025"/>
      <path id="Path_11358" data-name="Path 11358" d="M283.259,103.439c4.664,13.951,9.64,27.534,7.451,42.436a19.821,19.821,0,0,1-4.828,9.968c-38.444,46.617-73.815,95.619-111,143.211-2.016,2.582-3.779,5.385-5.992,7.771-16.263,17.517-28.1,37.256-31.452,61.38-.2,1.41-1.074,2.721-2.016,5.008-3.025-12.935-6.869-24.591-6.812-37.075a26.188,26.188,0,0,1,5.926-16.615q68.585-88.713,137-177.541c3.271-4.23,3.672-9.279,5.074-14.042C278.988,119.825,281.054,111.612,283.259,103.439Z" fill="#952025"/>
      <path id="Path_11359" data-name="Path 11359" d="M385.042,326.695c2.353,15.976,1.877,16.8-11.435,23.28-28.87,14.05-57.093,10.894-84.774-3.336a134.66,134.66,0,0,1-19.985-12.107c-6.5-4.943-11.861-4.123-17.64.639-10.878,8.968-21.419,18.378-33.6,25.649-16.8,10.025-34.346,12.345-52.789,5.172a62.531,62.531,0,0,1-8.148-3.918c-8.558-4.877-8.377-8.476.131-14.074,2.246-1.475,3.2-.074,4.492.771,17.763,11.656,35.034,9.935,52.183-1.541,9.246-6.189,17.616-13.435,26.2-20.435,14.96-12.214,23.19-12.591,39.3-1.812a143.52,143.52,0,0,0,27.895,14.927C335.2,350.9,360.9,345.458,385.042,326.695Z" fill="#343794"/>
      <path id="Path_11360" data-name="Path 11360" d="M385.984,367.033c1.8,15.6,1.746,15.632-11.255,21.058-29.419,12.287-57.134,6.623-83.905-8.115a142.755,142.755,0,0,1-16.591-10.427c-5.353-3.992-10.041-3.713-14.976.32-6.82,5.574-13.558,11.263-20.542,16.615-14.369,11.009-29.411,20.271-48.691,19.173a57.2,57.2,0,0,1-29.673-9.73c-1.73-1.18-6.779-2.312-2.894-5.648,2.91-2.492,3.771-10.074,10.632-5.64,17.165,11.1,34.206,10.066,50.822-1.123,6.664-4.492,12.96-9.541,19.353-14.427,4.8-3.664,9.3-7.746,14.255-11.173,9.468-6.533,19.091-6.779,28.764-.041,11.582,8.082,23.722,15.115,37.256,19.534q30.37,9.923,58.322-5.369C379.7,370.525,382.517,368.951,385.984,367.033Z" fill="#343794"/>
      <path id="Path_11361" data-name="Path 11361" d="M386.066,293.407c1.639,15.96,1.607,15.911-11.148,22.378-27.764,14.074-55.306,12.123-82.75-.967-8.189-3.91-16.255-8.148-23.362-13.747-6.369-5.025-11.771-4.213-17.583.6-7.951,6.582-15.911,13.173-24.165,19.353-14.976,11.222-31.337,18.247-50.609,14.6-2.91-.549-7.082.221-8.156-3.689-.73-2.656,7.943-10.107,10.91-9.509,14.025,2.828,25.763-2.574,36.6-10.394,8.763-6.328,17-13.394,25.509-20.075,13.542-10.64,22.173-10.984,36.231-1.443a143.946,143.946,0,0,0,31.96,16.779c22,7.935,42.961,5.951,63.1-5.73C376.927,299.038,381.165,296.374,386.066,293.407Z" fill="#343794"/>
      <path id="Path_11362" data-name="Path 11362" d="M190.64,302.563c7.082-9.066,12.312-17.32,21.894-22.165,10.8-5.459,19.23-14.558,28.78-21.96,13.992-10.845,22.132-11,36.862-1.074,12.8,8.632,26.3,15.8,41.5,19.321,20.919,4.844,39.871-.2,57.593-11.451,2.705-1.721,5.426-3.418,8.271-5.213,3.164,13.935,2.557,15.255-9.4,21.534-30.149,15.837-59.732,12.574-88.84-2.812a166.9,166.9,0,0,1-19.271-11.853c-5.6-4.017-10.435-3.959-15.665.3-8.394,6.845-16.722,13.779-25.4,20.247C216.608,295.144,205.517,301.432,190.64,302.563Z" fill="#343794"/>
      <path id="Path_11363" data-name="Path 11363" d="M242.494,235.535c3.943-5.1,8.074-9.877,11.541-15.1,2.844-4.279,6.164-4.722,10.246-2.631a99.737,99.737,0,0,1,9.771,5.648c10.517,6.992,21.46,13.05,33.485,17.107,20.78,7.017,40.674,4.992,59.683-5.73,6.115-3.451,11.968-7.369,17.96-11.082,3.812,10.574,2.32,14.935-6.443,20.288-32.231,19.7-64.5,17.64-96.758.2-5.746-3.107-11.574-6.287-16.689-10.3-6.459-5.058-12.14-5.246-18.116.32A4.241,4.241,0,0,1,242.494,235.535Z" fill="#343794"/>
    </g>
  </g>
</svg>
