<svg xmlns="http://www.w3.org/2000/svg" width="400.001" height="193.457" viewBox="0 0 400.001 193.457"><g transform="translate(0.27 -3.325)"><path d="M323.615,141.1H78.585c1.359-1.439,2.318-2.478,3.438-3.518,2.958-2.8,6.076-5.516,8.954-8.394a5.516,5.516,0,0,1,4.477-1.759h193.7L201.22,44.049,189.308,55.082c-9.114,8.394-18.147,16.868-27.341,25.342a4.557,4.557,0,0,0-1.6,3.677v39.972h-13.99v-7.994H130.389c-.64,2.318,0,4.8-.4,7.435H116.4V110.563a11.912,11.912,0,0,1,5.2-11.432,55.96,55.96,0,0,1,7.994-6.955v9.753h16.469V78.265a5.276,5.276,0,0,1,1.919-4.4q17.987-16.149,35.9-33.017l15.269-14.39c1.2-1.2,2-1.359,3.358,0l43.01,40.612,52.843,49.645,23.983,22.624C322.735,139.743,323.535,140.062,323.615,141.1Z" fill="#b42a2d"/><path d="M393.886,189.148,199.861,6.875,5.6,190.028H184.911a3.278,3.278,0,0,1,0,2.718c-.719.56-1.6,0-2.4,0H4.477c-1.519,0-3.677,1.039-4.557-1.039s1.519-2.718,2.638-3.757Q58.519,135.106,114.48,82.343L197.542,4.957c2.318-2.238,2.318-2.238,5.116.4L271.33,69.872,377.737,169.8l20.546,19.347c.719.64,1.759,1.279,1.359,2.478s-1.679,1.119-2.718,1.119h-71.95a5.117,5.117,0,0,1,0-3.118h69.152Z" fill="#342b5e"/><path d="M200.82,52.044a109.363,109.363,0,0,0,9.673,24.863,71.948,71.948,0,0,1,7.115,19.746,21.1,21.1,0,0,1-10.952,21.185,16.788,16.788,0,0,1-23.983-14.63,38.693,38.693,0,0,1,4.957-19.986A273.472,273.472,0,0,0,199.061,57.88C199.861,55.961,199.861,54.282,200.82,52.044ZM186.35,100.01a21.025,21.025,0,0,0,3.917,12.471,9.833,9.833,0,0,0,7.115,4.637,1.919,1.919,0,0,0,2.079-.959c.48-.8,0-1.519-.4-2.079a9.353,9.353,0,0,0-2.958-2.638A18.707,18.707,0,0,1,186.35,99.93Z" fill="#342b5e"/><path d="M274.449,166.044v-5.516h17.668v17.908H270.132a10.313,10.313,0,0,1-7.994-5.676,17.268,17.268,0,0,1,3.358-22.3,11.752,11.752,0,0,1,5.116-2.478,21.828,21.828,0,0,1,3.278,0h18.387v5.836h-15.99a6.8,6.8,0,0,0-7.6,5.6A11.352,11.352,0,0,0,270.531,171a4.8,4.8,0,0,0,3.438,1.839h10.872v-6.555Z" fill="#342b5e"/><path d="M148.3,147.737h23.98a8.794,8.794,0,0,1,7.435,7.994,9.274,9.274,0,0,1-4.957,9.833l-2.318.959,8.394,12.231H172.84c-.959,0-1.2-.8-1.6-1.359-2-2.878-4-5.756-5.916-8.714a2.878,2.878,0,0,0-3.038-1.6H156.05V178.6h-7.275Zm7.355,13.591h10.713a4.317,4.317,0,0,0,4-4.157,3.677,3.677,0,0,0-4.077-3.518H155.652Z" fill="#342b5e"/><path d="M201.38,179.555a15.429,15.429,0,0,1-14.79-7.115,20.066,20.066,0,0,1,2-21.185,15.989,15.989,0,0,1,7.994-4,33.178,33.178,0,0,1,9.753,0,12.231,12.231,0,0,1,11.352,10.633,18.707,18.707,0,0,1-3.837,17.987,18.307,18.307,0,0,1-12.472,3.68Zm-8.794-16.788c0,6.635,1.279,9.114,5.356,10.313a13.351,13.351,0,0,0,7.994,0,5.356,5.356,0,0,0,3.438-3.358,16.389,16.389,0,0,0,.56-9.593,8.634,8.634,0,0,0-17.108.72,12.948,12.948,0,0,0-.24,1.919Z" fill="#342b5e"/><path d="M306.187,166.2a6.236,6.236,0,0,0,6.316,6.4h13.271v5.756a28.064,28.064,0,0,1-5.836,0h-8.554a13.111,13.111,0,0,1-13.83-10.473,15.989,15.989,0,0,1,7.355-18.867,11.431,11.431,0,0,1,4.557-1.279,37.811,37.811,0,0,1,4.237,0H325.7v5.916H312.182a5.916,5.916,0,0,0-6,6.715h19.666V166.2Z" fill="#342b5e"/><path d="M87.139,166.524v11.912H79.944V147.817h7.195v12.072h14.15V147.9a47.244,47.244,0,0,1,7.515,0v30.7a36.456,36.456,0,0,1-7.275,0v-12Z" fill="#342b5e"/><path d="M246.868,147.737H254.3V168.6a8.954,8.954,0,0,1-7.2,9.833,27.821,27.821,0,0,1-15.989,0,10.233,10.233,0,0,1-7.275-10.553V148.137h7.515V166.2c0,2.958.56,5.516,3.518,6.635a10.872,10.872,0,0,0,10.393-.4,5.037,5.037,0,0,0,1.919-4.477V150.85Z" fill="#342b5e"/><path d="M111.922,178.6l6-14.87c1.919-4.717,4-9.433,5.836-14.15.48-1.359,1.119-2.079,2.718-1.919s3.837,0,5.756,0L145.5,178.6h-7.115c-1.119,0-1.2-.879-1.519-1.679-2.079-5.276-2.079-5.276-7.994-5.276h-.959c-4.317-.8-7.195.48-7.994,5.2a2,2,0,0,1-2.558,1.759C115.839,178.516,113.921,178.6,111.922,178.6Zm12.951-12.8h7.515l-3.837-9.753Z" fill="#342b5e"/><path d="M272.69,196.023c-1.919.56-2.958,0-3.278-1.6s-.959-1.679-2.318-1.759-2.318,0-2.638,1.679-2.158,1.919-3.757,2-2.958,0-3.518-2.079a19.665,19.665,0,0,0-1.519-3.2c0-.72.719-.56,1.119-.56s1.839-.64,1.759-1.759-1.039-.959-1.759-1.039-1.439.8-1.439,1.759v6.4a3.278,3.278,0,0,1-2.718,0l.48-10.073h4.877a2.735,2.735,0,1,1,1.439,5.277s-.4,0-.719.559a7.435,7.435,0,0,0,2.318,3.837c1.439-2.8,2.878-5.436,4.157-7.994a2.638,2.638,0,0,1,2.558-1.6c1.359,0,1.6.879,1.919,1.839C270.691,190.427,271.811,193.225,272.69,196.023Zm-5.276-7.435c-.64.879-1.279,1.359-.879,2.238,2.318.241,1.518-.878.879-2.237Z" fill="#b42a2d"/><path d="M227.282,196.583a5.436,5.436,0,0,1-5.756-5.356,5.676,5.676,0,0,1,6.156-5.516,5.2,5.2,0,0,1,5.676,5.516,5.676,5.676,0,0,1-6.076,5.356Zm-3.038-5.676a3.118,3.118,0,0,0,2.958,3.6,3.438,3.438,0,0,0,.719-6.8,3.2,3.2,0,0,0-3.677,3.2Z" fill="#b42a2d"/><path d="M309.384,196.1c-5.2.879-4.557-4.477-7.435-6.156v5.916a1.919,1.919,0,0,1-2.238,0,54.915,54.915,0,0,0,0-9.593c2.079-.8,3.677-.719,4.717,1.6a34.7,34.7,0,0,0,3.038,4.957v-5.2c0-1.519.72-2.158,2.478-1.519Z" fill="#b42a2d"/><path d="M198.981,185.711a5.037,5.037,0,0,1,5.356,5.276,5.916,5.916,0,0,1-11.752,0,5.756,5.756,0,0,1,6.4-5.276Zm2.718,5.276c0-2.159-1.039-3.278-3.118-3.278a4.557,4.557,0,0,0-3.837,3.278,3.837,3.837,0,0,0,3.677,3.518c2.159-.005,3.279-1.2,3.279-3.518Z" fill="#b42a2d"/><path d="M292.436,185.711a5.436,5.436,0,0,1,5.756,5.036,5.6,5.6,0,0,1-5.916,5.836,5.436,5.436,0,1,1,0-10.872Zm3.118,5.2a2.958,2.958,0,0,0-3.278-3.278,3.438,3.438,0,0,0-3.278,3.6,3.278,3.278,0,1,0,6.556,0Z" fill="#b42a2d"/><path d="M250.545,190.267c.48,2.158-1.039,1.759-2.238,1.759s-2.638,0-2,2c1.359.8,3.038,0,4.557.48,0,1.919-2.158,2.4-7.2,1.519V186.27a34.617,34.617,0,0,1,7.515,0c0,1.839,0,1.759-2.079,1.839s-3.118-.64-2.8,2C247.827,190.507,249.186,189.708,250.545,190.267Z" fill="#b42a2d"/><path d="M237.2,191.866v3.757c-.959.56-1.759,0-2.878,0a34.057,34.057,0,0,0,.48-9.833,11.112,11.112,0,0,1,4.8,0,2.718,2.718,0,0,1,3.2,2.478,3.118,3.118,0,0,1-2.958,3.6,12.631,12.631,0,0,1-2.644,0Zm0-2.079c1.279,0,2.478.48,2.8-1.039s-.64-1.279-1.439-1.359-1.439,1.519-1.359,2.718Z" fill="#b42a2d"/><path d="M281.724,185.87c0,1.679,0,2.158-1.439,2s-1.839.64-1.839,1.919v6a3.6,3.6,0,0,1-2.638.4v-7.994h0c-.8-.48-2.638.719-2.478-1.119s1.759-.879,2.718-.879S279.8,185.87,281.724,185.87Z" fill="#b42a2d"/><path d="M310.983,194.265c1.2,0,2.878,1.2,3.677,0s-1.359-1.919-2.079-2.958-2.238-2.558-.8-4.157a4.477,4.477,0,0,1,4.637-.959c1.039,0,.959.959.8,1.919s-2.4-.719-3.438.64c0,1.6,2.159,2.159,3.038,3.438a2.806,2.806,0,0,1-1.439,4.4C313.062,197.223,310.983,196.263,310.983,194.265Z" fill="#b42a2d"/><path d="M210.413,186.27a2.958,2.958,0,0,1,2.478,0v7.994h4.317c0,2.079-1.359,2.318-7.275,1.6Z" fill="#b42a2d"/><path d="M282.523,186.27a3.6,3.6,0,0,1,2.558,0v9.673c-.959.8-1.759,0-2.558.4Z" fill="#b42a2d"/><path d="M208.335,196.023c-1.2,0-1.919.4-2.558,0V186.35a2.718,2.718,0,0,1,2.558,0Z" fill="#b42a2d"/></g></svg>