<svg xmlns="http://www.w3.org/2000/svg" xmlns:xlink="http://www.w3.org/1999/xlink" width="400" height="400" viewBox="0 0 400 400">
  <defs>
    <clipPath id="clip-path">
      <rect id="Rectangle_3292" data-name="Rectangle 3292" width="400" height="400" transform="translate(6453 6179)" fill="#fff" stroke="#707070" stroke-width="1"/>
    </clipPath>
  </defs>
  <g id="Mask_Group_14" data-name="Mask Group 14" transform="translate(-6453 -6179)" clip-path="url(#clip-path)">
    <g id="mellitah-logo" transform="translate(6460.28 6166.2)">
      <path id="Path_11750" data-name="Path 11750" d="M307.2,398.4a14.34,14.34,0,0,1-14.4,14.4H92.64a14.34,14.34,0,0,1-14.4-14.4V27.2a14.34,14.34,0,0,1,14.4-14.4H292.8a14.34,14.34,0,0,1,14.4,14.4Z" fill="#e8b42b" fill-rule="evenodd"/>
      <g id="Group_2399" data-name="Group 2399">
        <g id="Group_2398" data-name="Group 2398">
          <path id="Path_11751" data-name="Path 11751" d="M228.48,205.76c4.8,1.6,8.32-.16,11.68-.8,28.96-5.92,44.48,14.4,41.28,40.32-3.52,28-13.76,53.6-28.96,77.28-10.24,16.16-21.12,31.68-36.32,43.52-18.56,14.4-38.72,26.08-63.04,27.04-22.24.8-39.52-11.68-47.2-32.96-11.36-31.36-7.36-61.44,7.68-90.56,17.6-34.08,43.52-60.48,74.24-82.88,13.76-10.08,28.16-18.08,44.48-22.24,24-6.24,33.12,5.92,40,26.24,1.28,4-1.76,4.16-4.48,4.48-12,1.12-23.68,3.36-34.88,8.16A45.625,45.625,0,0,1,228.48,205.76Zm-56.64,46.88a20.35,20.35,0,0,0-7.52,7.2c-11.36,16.48-21.92,33.44-29.44,52.16-5.28,13.28-11.68,26.4-10.56,41.44s9.12,22.24,24.32,21.92c11.84-.32,21.28-6.24,30.56-12.64,25.44-17.76,44.96-40.8,60.8-67.04,10.72-17.76,19.04-36.64,18.56-58.08-.32-13.44-7.2-19.52-20.32-17.28a44.792,44.792,0,0,0-9.92,2.4c-23.84,9.28-42.4,25.28-56.8,46.24-3.2,4.64-6.56,9.12-9.92,13.76-.48-.32-.96-.48-1.44-.8C162.4,271.52,167.04,262.08,171.84,252.64Z" fill="#2e3334" fill-rule="evenodd"/>
          <path id="Path_11752" data-name="Path 11752" d="M159.52,285.12c3.52,4.64,6.72,9.12,9.92,13.76,2.56,3.84,4.96,7.68,5.76,12.48,1.28,7.2-.64,12.64-5.6,15.84-5.92,3.68-16.32,3.36-21.6-.64-4.8-3.68-6.56-10.08-4.32-16.96C146.72,300,153.44,292.8,159.52,285.12Z" fill="#2e3334" fill-rule="evenodd"/>
        </g>
        <path id="Path_11753" data-name="Path 11753" d="M160.16,63.68a15.926,15.926,0,1,1,16.16-15.84A15.848,15.848,0,0,1,160.16,63.68Z" fill="#d94454" fill-rule="evenodd"/>
        <path id="Path_11754" data-name="Path 11754" d="M187.68,183.36c-7.2,2.72-14.4,6.4-21.6,9.12-10.08,4-20.32,5.12-30.4.64-3.68-1.76-7.84-4.8-9.6-8.32-8.96-17.76-9.28-50.4,9.44-67.84A106.956,106.956,0,0,1,172,95.2c24-8.8,48.64-14.72,74.56-14.56,4.8,0,9.6,1.12,14.24,2.24,4.16,1.12,4.8,3.36,1.76,7.04a30.707,30.707,0,0,0-5.76,9.6c-2.24,6.08-6.4,9.44-12.8,10.24-13.12,1.76-26.24,3.04-39.2,5.76-17.76,3.84-34.56,10.24-48.8,22.08-5.76,4.8-10.56,10.56-10.24,18.72.16,4.32,2.08,7.52,6.4,8.16,4,.48,8.48.96,12.32,0,24.32-5.6,46.24-16.48,67.68-28.8a274.523,274.523,0,0,1,32.32-15.84c7.84-3.2,11.84-.8,14.4,6.08,2.56,6.56.8,10.4-6.4,13.76-16.96,7.84-36.16,16.48-50.24,24.48-3.2,1.92-7.2,4.32-9.76,5.76C205.76,174.08,203.68,174.72,187.68,183.36Z" fill="#d94454" fill-rule="evenodd"/>
      </g>
    </g>
  </g>
</svg>
