<svg xmlns="http://www.w3.org/2000/svg" xmlns:xlink="http://www.w3.org/1999/xlink" width="251.72" height="60.531" viewBox="0 0 251.72 60.531"><defs><clipPath id="a"><rect width="46.473" height="60.531" fill="none"/></clipPath></defs><g transform="translate(-140 -69.263)"><g transform="translate(140 61.213)"><g transform="translate(0 0.001)"><path d="M38.033,29.085V16.129H39.79L46.6,26.3V16.129H48.24V29.085H46.48L39.676,18.9V29.085Z" transform="translate(23.161 9.821)" fill="#001932"/><path d="M52.369,26.656a5.878,5.878,0,0,1-1.7,1.06,4.88,4.88,0,0,1-1.754.309,3.414,3.414,0,0,1-2.378-.755,2.494,2.494,0,0,1-.83-1.931,2.613,2.613,0,0,1,1.136-2.174,3.871,3.871,0,0,1,1.144-.523,11.584,11.584,0,0,1,1.414-.238,14.655,14.655,0,0,0,2.837-.547c0-.219.01-.357.01-.417a1.756,1.756,0,0,0-.452-1.369,2.663,2.663,0,0,0-1.812-.539,2.812,2.812,0,0,0-1.657.393,2.414,2.414,0,0,0-.79,1.393l-1.556-.212a3.851,3.851,0,0,1,.7-1.614,3.063,3.063,0,0,1,1.4-.944,6.249,6.249,0,0,1,2.13-.331,5.6,5.6,0,0,1,1.953.283,2.578,2.578,0,0,1,1.105.71,2.51,2.51,0,0,1,.494,1.084,8.954,8.954,0,0,1,.079,1.466v2.122a22.406,22.406,0,0,0,.1,2.8,3.525,3.525,0,0,0,.4,1.128H52.687a3.418,3.418,0,0,1-.319-1.158M52.237,23.1a11.658,11.658,0,0,1-2.6.6,5.988,5.988,0,0,0-1.387.317,1.4,1.4,0,0,0-.628.516,1.412,1.412,0,0,0,.259,1.818,2.085,2.085,0,0,0,1.411.423,3.27,3.27,0,0,0,1.635-.4,2.488,2.488,0,0,0,1.052-1.1,3.845,3.845,0,0,0,.256-1.59Z" transform="translate(27.834 11.093)" fill="#001932"/><path d="M56.1,27.551l.23,1.406a5.95,5.95,0,0,1-1.2.14,2.714,2.714,0,0,1-1.344-.274,1.531,1.531,0,0,1-.671-.721,5.667,5.667,0,0,1-.195-1.878v-5.4H51.754V19.588h1.167V17.265l1.582-.954v3.277h1.6v1.237H54.5v5.488a2.7,2.7,0,0,0,.085.875.643.643,0,0,0,.274.309,1.049,1.049,0,0,0,.542.116,5.093,5.093,0,0,0,.7-.063" transform="translate(31.517 9.932)" fill="#001932"/><path d="M55.428,16.129h1.591v1.829H55.428Zm0,3.57h1.591v9.385H55.428Z" transform="translate(33.755 9.821)" fill="#001932"/><path d="M57.553,23.122A4.837,4.837,0,0,1,59,19.26a4.373,4.373,0,0,1,2.952-1.044,4.213,4.213,0,0,1,3.165,1.269,4.828,4.828,0,0,1,1.228,3.5,6.242,6.242,0,0,1-.542,2.851,3.861,3.861,0,0,1-1.583,1.612,4.61,4.61,0,0,1-2.267.574,4.222,4.222,0,0,1-3.186-1.263,5.045,5.045,0,0,1-1.215-3.641m1.635,0a4.006,4.006,0,0,0,.785,2.7,2.621,2.621,0,0,0,3.952,0,4.1,4.1,0,0,0,.787-2.748,3.88,3.88,0,0,0-.792-2.639,2.624,2.624,0,0,0-3.947,0,3.986,3.986,0,0,0-.785,2.7" transform="translate(35.049 11.092)" fill="#001932"/><path d="M64.177,27.814V18.428h1.432v1.334A3.375,3.375,0,0,1,68.6,18.216a3.9,3.9,0,0,1,1.561.306,2.463,2.463,0,0,1,1.065.8,3.079,3.079,0,0,1,.494,1.176,9.042,9.042,0,0,1,.088,1.546v5.771H70.212V22.1a4.339,4.339,0,0,0-.183-1.455,1.534,1.534,0,0,0-.66-.767,2.081,2.081,0,0,0-1.109-.288,2.577,2.577,0,0,0-1.754.645,3.172,3.172,0,0,0-.739,2.447v5.126Z" transform="translate(39.083 11.092)" fill="#001932"/><path d="M76.762,26.656a5.878,5.878,0,0,1-1.7,1.06,4.88,4.88,0,0,1-1.754.309,3.414,3.414,0,0,1-2.378-.755,2.494,2.494,0,0,1-.83-1.931,2.613,2.613,0,0,1,1.136-2.174,3.871,3.871,0,0,1,1.144-.523,11.585,11.585,0,0,1,1.414-.238,14.654,14.654,0,0,0,2.837-.547c0-.219.01-.357.01-.417a1.756,1.756,0,0,0-.452-1.369,2.663,2.663,0,0,0-1.812-.539,2.812,2.812,0,0,0-1.657.393,2.414,2.414,0,0,0-.79,1.393l-1.556-.212a3.851,3.851,0,0,1,.7-1.614,3.063,3.063,0,0,1,1.4-.944,6.249,6.249,0,0,1,2.13-.331,5.6,5.6,0,0,1,1.953.283,2.578,2.578,0,0,1,1.105.71,2.51,2.51,0,0,1,.494,1.084,8.953,8.953,0,0,1,.079,1.466v2.122a22.4,22.4,0,0,0,.1,2.8,3.524,3.524,0,0,0,.4,1.128H77.08a3.417,3.417,0,0,1-.319-1.158M76.63,23.1a11.657,11.657,0,0,1-2.6.6,5.988,5.988,0,0,0-1.387.317,1.4,1.4,0,0,0-.628.516,1.412,1.412,0,0,0,.259,1.818,2.085,2.085,0,0,0,1.411.423,3.27,3.27,0,0,0,1.635-.4,2.488,2.488,0,0,0,1.052-1.1,3.845,3.845,0,0,0,.256-1.59Z" transform="translate(42.689 11.093)" fill="#001932"/><rect width="1.59" height="12.956" transform="translate(123.357 25.951)" fill="#001932"/><path d="M82.117,22.863a7.043,7.043,0,0,1,1.731-5.051,5.889,5.889,0,0,1,4.473-1.826,6.207,6.207,0,0,1,3.234.858,5.609,5.609,0,0,1,2.2,2.391,7.764,7.764,0,0,1,.755,3.477,7.628,7.628,0,0,1-.795,3.527,5.435,5.435,0,0,1-2.254,2.354,6.423,6.423,0,0,1-3.146.8,6.128,6.128,0,0,1-3.269-.885A5.692,5.692,0,0,1,82.859,26.1a7.306,7.306,0,0,1-.742-3.234m1.767.026a5.188,5.188,0,0,0,1.26,3.689,4.393,4.393,0,0,0,6.346-.013A5.5,5.5,0,0,0,92.74,22.7a6.653,6.653,0,0,0-.534-2.763,4.124,4.124,0,0,0-1.564-1.829,4.247,4.247,0,0,0-2.312-.648,4.385,4.385,0,0,0-3.133,1.25q-1.313,1.25-1.313,4.175" transform="translate(50.008 9.734)" fill="#001932"/><path d="M91.069,16.129H92.66v1.829H91.069Zm0,3.57H92.66v9.385H91.069Z" transform="translate(55.459 9.821)" fill="#001932"/><rect width="1.59" height="12.956" transform="translate(150.506 25.951)" fill="#001932"/><path d="M108.744,24.626l1.715.433a5.77,5.77,0,0,1-1.94,3.221,5.345,5.345,0,0,1-3.426,1.11,6.141,6.141,0,0,1-3.4-.854,5.324,5.324,0,0,1-2-2.47A8.8,8.8,0,0,1,99,22.594a7.637,7.637,0,0,1,.774-3.53,5.294,5.294,0,0,1,2.2-2.29,6.427,6.427,0,0,1,3.141-.782,5.317,5.317,0,0,1,3.271.99,5.143,5.143,0,0,1,1.847,2.784l-1.688.4a4.019,4.019,0,0,0-1.308-2.058,3.478,3.478,0,0,0-2.156-.645,4.19,4.19,0,0,0-2.5.714,3.787,3.787,0,0,0-1.411,1.923,7.756,7.756,0,0,0-.405,2.487,7.9,7.9,0,0,0,.483,2.887,3.583,3.583,0,0,0,1.5,1.842,4.205,4.205,0,0,0,2.2.61,3.682,3.682,0,0,0,2.439-.832,4.248,4.248,0,0,0,1.352-2.465" transform="translate(60.292 9.738)" fill="#001932"/><path d="M106.943,23.122a4.837,4.837,0,0,1,1.448-3.862,4.373,4.373,0,0,1,2.952-1.044,4.213,4.213,0,0,1,3.165,1.269,4.828,4.828,0,0,1,1.228,3.5,6.219,6.219,0,0,1-.544,2.851,3.848,3.848,0,0,1-1.582,1.612,4.61,4.61,0,0,1-2.267.574,4.222,4.222,0,0,1-3.186-1.263,5.045,5.045,0,0,1-1.215-3.641m1.635,0a4.006,4.006,0,0,0,.785,2.7,2.621,2.621,0,0,0,3.952,0,4.1,4.1,0,0,0,.785-2.748,3.879,3.879,0,0,0-.79-2.639,2.624,2.624,0,0,0-3.947,0,3.986,3.986,0,0,0-.785,2.7" transform="translate(65.126 11.092)" fill="#001932"/><path d="M113.555,27.814V18.428h1.432v1.422A3.882,3.882,0,0,1,116,18.535a1.766,1.766,0,0,1,1.022-.319,3.1,3.1,0,0,1,1.635.513l-.549,1.475a2.275,2.275,0,0,0-1.167-.346,1.523,1.523,0,0,0-.938.315,1.7,1.7,0,0,0-.59.87,6.183,6.183,0,0,0-.265,1.855v4.914Z" transform="translate(69.153 11.092)" fill="#001932"/><path d="M117.312,31.411V18.428h1.45v1.22a3.577,3.577,0,0,1,1.158-1.073,3.183,3.183,0,0,1,1.564-.357,3.711,3.711,0,0,1,2.121.618,3.8,3.8,0,0,1,1.389,1.746,6.4,6.4,0,0,1,.467,2.47,6.279,6.279,0,0,1-.516,2.594,3.922,3.922,0,0,1-3.575,2.381,3,3,0,0,1-1.427-.335,3.245,3.245,0,0,1-1.038-.85v4.57Zm1.442-8.236a4.089,4.089,0,0,0,.732,2.677,2.251,2.251,0,0,0,1.776.866,2.3,2.3,0,0,0,1.818-.9,4.27,4.27,0,0,0,.755-2.78,4.142,4.142,0,0,0-.739-2.685,2.22,2.22,0,0,0-1.763-.893,2.291,2.291,0,0,0-1.8.949,4.245,4.245,0,0,0-.782,2.763" transform="translate(71.441 11.093)" fill="#001932"/><path d="M123.2,23.122a4.837,4.837,0,0,1,1.448-3.862,4.373,4.373,0,0,1,2.952-1.044,4.213,4.213,0,0,1,3.165,1.269,4.828,4.828,0,0,1,1.228,3.5,6.219,6.219,0,0,1-.544,2.851,3.848,3.848,0,0,1-1.582,1.612,4.61,4.61,0,0,1-2.267.574,4.222,4.222,0,0,1-3.186-1.263,5.045,5.045,0,0,1-1.215-3.641m1.635,0a4.006,4.006,0,0,0,.785,2.7,2.621,2.621,0,0,0,3.952,0,4.1,4.1,0,0,0,.787-2.748,3.88,3.88,0,0,0-.792-2.639,2.624,2.624,0,0,0-3.947,0,3.986,3.986,0,0,0-.785,2.7" transform="translate(75.027 11.092)" fill="#001932"/><path d="M129.814,27.814V18.428h1.432v1.422a3.862,3.862,0,0,1,1.012-1.316,1.761,1.761,0,0,1,1.02-.319,3.108,3.108,0,0,1,1.636.513l-.549,1.475a2.28,2.28,0,0,0-1.168-.346,1.515,1.515,0,0,0-.936.315,1.7,1.7,0,0,0-.592.87,6.183,6.183,0,0,0-.264,1.855v4.914Z" transform="translate(79.054 11.092)" fill="#001932"/><path d="M139.9,26.656a5.879,5.879,0,0,1-1.7,1.06,4.88,4.88,0,0,1-1.754.309,3.414,3.414,0,0,1-2.378-.755,2.494,2.494,0,0,1-.83-1.931,2.613,2.613,0,0,1,1.136-2.174,3.871,3.871,0,0,1,1.144-.523,11.585,11.585,0,0,1,1.414-.238,14.654,14.654,0,0,0,2.837-.547c0-.219.01-.357.01-.417a1.756,1.756,0,0,0-.452-1.369,2.663,2.663,0,0,0-1.812-.539,2.812,2.812,0,0,0-1.657.393,2.414,2.414,0,0,0-.79,1.393l-1.556-.212a3.851,3.851,0,0,1,.7-1.614,3.063,3.063,0,0,1,1.4-.944,6.249,6.249,0,0,1,2.13-.331,5.6,5.6,0,0,1,1.953.283,2.578,2.578,0,0,1,1.105.71,2.51,2.51,0,0,1,.494,1.084,8.95,8.95,0,0,1,.079,1.466v2.122a22.4,22.4,0,0,0,.1,2.8,3.524,3.524,0,0,0,.4,1.128h-1.662a3.418,3.418,0,0,1-.319-1.158m-.132-3.553a11.658,11.658,0,0,1-2.6.6,5.988,5.988,0,0,0-1.387.317,1.4,1.4,0,0,0-.628.516,1.412,1.412,0,0,0,.259,1.818,2.085,2.085,0,0,0,1.411.423,3.27,3.27,0,0,0,1.635-.4,2.488,2.488,0,0,0,1.052-1.1,3.845,3.845,0,0,0,.256-1.59Z" transform="translate(81.138 11.093)" fill="#001932"/><path d="M143.63,27.551l.23,1.406a5.95,5.95,0,0,1-1.2.14,2.714,2.714,0,0,1-1.343-.274,1.531,1.531,0,0,1-.671-.721,5.667,5.667,0,0,1-.195-1.878v-5.4h-1.167V19.588h1.167V17.265l1.582-.954v3.277h1.6v1.237h-1.6v5.488a2.7,2.7,0,0,0,.085.875.643.643,0,0,0,.274.309,1.049,1.049,0,0,0,.542.116,5.093,5.093,0,0,0,.7-.063" transform="translate(84.821 9.932)" fill="#001932"/><path d="M142.958,16.129h1.591v1.829h-1.591Zm0,3.57h1.591v9.385h-1.591Z" transform="translate(87.059 9.821)" fill="#001932"/><path d="M145.084,23.122a4.837,4.837,0,0,1,1.448-3.862,4.373,4.373,0,0,1,2.952-1.044,4.213,4.213,0,0,1,3.165,1.269,4.828,4.828,0,0,1,1.228,3.5,6.219,6.219,0,0,1-.544,2.851,3.848,3.848,0,0,1-1.582,1.612,4.61,4.61,0,0,1-2.267.574,4.222,4.222,0,0,1-3.186-1.263,5.045,5.045,0,0,1-1.215-3.641m1.635,0a4.006,4.006,0,0,0,.785,2.7,2.622,2.622,0,0,0,3.952,0,4.1,4.1,0,0,0,.785-2.748,3.879,3.879,0,0,0-.79-2.639,2.624,2.624,0,0,0-3.947,0,3.986,3.986,0,0,0-.785,2.7" transform="translate(88.353 11.092)" fill="#001932"/><path d="M151.708,27.814V18.428h1.432v1.334a3.372,3.372,0,0,1,2.985-1.546,3.9,3.9,0,0,1,1.561.306,2.463,2.463,0,0,1,1.065.8,3.081,3.081,0,0,1,.5,1.176,9.093,9.093,0,0,1,.087,1.546v5.771h-1.591V22.1a4.3,4.3,0,0,0-.183-1.455,1.534,1.534,0,0,0-.66-.767,2.081,2.081,0,0,0-1.109-.288,2.57,2.57,0,0,0-1.752.645,3.166,3.166,0,0,0-.739,2.447v5.126Z" transform="translate(92.387 11.092)" fill="#001932"/><path d="M54.221,38.791h1.207v1.482h-1.39a3.017,3.017,0,0,1-2.286-.859,2.665,2.665,0,0,1-2.121.859h-11.6l.787-1.482h2.45l.055-.2V29.318l1.574-.841v6.693A6.123,6.123,0,0,1,48.075,32.1a4.15,4.15,0,0,1,3.311,1.445,4.453,4.453,0,0,1,1.06,3.017V37a1.576,1.576,0,0,0,1.775,1.792m-3.366-1.718V36.56a2.986,2.986,0,0,0-.879-2.267,2.587,2.587,0,0,0-1.883-.732,4.5,4.5,0,0,0-3.4,1.7,9.33,9.33,0,0,0-1.792,3.2v.328h6.6a1.29,1.29,0,0,0,1.07-.365,2.326,2.326,0,0,0,.283-1.353" transform="translate(23.161 17.34)" fill="#001932"/><path d="M56.154,38.813h3.4v1.482H55.092a5.354,5.354,0,0,1-1.244-.129,5.2,5.2,0,0,1-1.244.129H48.161V38.813h3.4a4.272,4.272,0,0,1-1.133-2.872,3.976,3.976,0,0,1,1.006-2.853,3.161,3.161,0,0,1,2.413-.969A3.12,3.12,0,0,1,56.5,33.363a4.1,4.1,0,0,1,.787,2.578,4.274,4.274,0,0,1-1.134,2.872m-2.286-.164a2.705,2.705,0,0,0,1.371-1.07,2.966,2.966,0,0,0,.531-1.71,2.5,2.5,0,0,0-.521-1.673,1.895,1.895,0,0,0-2.8.008,2.511,2.511,0,0,0-.521,1.665,2.927,2.927,0,0,0,.547,1.7,2.792,2.792,0,0,0,1.392,1.08m.018-8.4a.8.8,0,0,1-.9-.914.887.887,0,1,1,1.775,0q0,.915-.879.914" transform="translate(29.329 17.32)" fill="#001932"/><path d="M60.926,38.855h1.208v1.482h-1.39a3.073,3.073,0,0,1-2.4-.97,3.063,3.063,0,0,1-2.394.97h-1.39V38.855h1.205a1.6,1.6,0,0,0,1.792-1.829V33.24l1.574-.841v4.627a1.6,1.6,0,0,0,1.792,1.829m-2.89-8.669a.8.8,0,0,1-.9-.916.793.793,0,0,1,.9-.9.785.785,0,0,1,.879.9c0,.611-.293.916-.879.916" transform="translate(33.227 17.278)" fill="#001932"/><path d="M64.822,38.792h1.207v1.482h-1.39a3.033,3.033,0,0,1-2.433-1.006,3.244,3.244,0,0,1-2.524,1.006h-1.1V38.792h.969q1.9,0,1.9-1.994v-7.48l1.591-.841v8.339a2.254,2.254,0,0,0,.412,1.519,1.757,1.757,0,0,0,1.363.457" transform="translate(35.678 17.341)" fill="#001932"/><path d="M62.531,40.274V38.792H63.5q1.9,0,1.9-1.994v-7.48l1.591-.841v8.341a3.443,3.443,0,0,1-.969,2.578,3.32,3.32,0,0,1-2.4.879Z" transform="translate(38.08 17.341)" fill="#001932"/><path d="M77.731,38.924h1.207v1.482h-1.39a2.9,2.9,0,0,1-2.706-1.39,3.029,3.029,0,0,1-2.177.841A3.091,3.091,0,0,1,70.1,38.649a4,4,0,0,1-.787-2.505,3.857,3.857,0,0,1,1.08-2.853,3.006,3.006,0,0,1,2.232-.933,2.954,2.954,0,0,1,1.738.512v-.787l1.591-.841v5.853a1.593,1.593,0,0,0,1.775,1.829m-3.366-4.352a2.155,2.155,0,0,0-1.664-.751,1.6,1.6,0,0,0-1.316.65,3.061,3.061,0,0,0,0,3.393,1.626,1.626,0,0,0,1.334.64,2.05,2.05,0,0,0,1.683-.841,5.08,5.08,0,0,1-.037-.513ZM72,30.072a.906.906,0,0,1,0-1.812.785.785,0,0,1,.878.9q0,.915-.878.914m2.323,0a.906.906,0,0,1,0-1.812.785.785,0,0,1,.879.9q0,.915-.879.914" transform="translate(42.212 17.209)" fill="#001932"/><path d="M80.978,37.332h1.208v1.48H80.8a3.072,3.072,0,0,1-2.4-.969A3.062,3.062,0,0,1,76,38.812h-1.39v-1.48h1.205A1.6,1.6,0,0,0,77.613,35.5V31.716l1.572-.841V35.5a1.6,1.6,0,0,0,1.792,1.829m-4.372,3.31c.586,0,.879.3.879.916a.785.785,0,0,1-.879.9.793.793,0,0,1-.9-.9.8.8,0,0,1,.9-.916m2.323,0c.586,0,.879.3.879.916a.785.785,0,0,1-.879.9.793.793,0,0,1-.9-.9.8.8,0,0,1,.9-.916" transform="translate(45.438 18.801)" fill="#001932"/><path d="M85,38.855H86.21v1.482H84.82a3.073,3.073,0,0,1-2.4-.97,3.063,3.063,0,0,1-2.394.97h-1.39V38.855h1.205a1.6,1.6,0,0,0,1.792-1.829V33.24l1.574-.841v4.627A1.6,1.6,0,0,0,85,38.855m-2.89-8.669a.8.8,0,0,1-.9-.916.793.793,0,0,1,.9-.9.785.785,0,0,1,.879.9c0,.611-.293.916-.879.916" transform="translate(47.889 17.278)" fill="#001932"/><path d="M87.692,35.169A6.123,6.123,0,0,1,92.868,32.1a4.152,4.152,0,0,1,3.311,1.445,4.453,4.453,0,0,1,1.06,3.017v.586a3.336,3.336,0,0,1-.732,2.314,2.653,2.653,0,0,1-2.084.814H82.662V38.791h3.4l.055-.2V29.318l1.574-.841Zm7.956,1.9V36.56a2.992,2.992,0,0,0-.879-2.267,2.591,2.591,0,0,0-1.884-.732,4.5,4.5,0,0,0-3.4,1.7,9.33,9.33,0,0,0-1.792,3.2v.328h6.6a1.287,1.287,0,0,0,1.068-.365,2.311,2.311,0,0,0,.285-1.353" transform="translate(50.34 17.34)" fill="#001932"/><path d="M102.288,37.422V38.9h-2.267a3.4,3.4,0,0,1-1.353,2.6,3.875,3.875,0,0,1-2.449.841,4.525,4.525,0,0,1-2.143-.529v-1.39A4.093,4.093,0,0,0,96,40.933a2.561,2.561,0,0,0,1.693-.6,1.892,1.892,0,0,0,.742-1.445q-.953-.036-1.411-.072a3.937,3.937,0,0,1-2.98-1.335,4.04,4.04,0,0,1-.842-2.653,4.335,4.335,0,0,1,1.06-3.109,3.32,3.32,0,0,1,2.505-.988,3.208,3.208,0,0,1,2.507.97,3.287,3.287,0,0,1,.75,2.249v3.475Zm-3.857-3.366q0-1.866-1.667-1.866a1.766,1.766,0,0,0-1.48.687,3.055,3.055,0,0,0-.531,1.911,2.245,2.245,0,0,0,2.341,2.542c.293.037.737.068,1.337.092Z" transform="translate(56.756 18.711)" fill="#001932"/><path d="M98.168,40.274V38.792h.969c1.27,0,1.9-.665,1.9-1.994v-7.48l1.591-.841v8.341a3.442,3.442,0,0,1-.967,2.578,3.322,3.322,0,0,1-2.4.879Z" transform="translate(59.782 17.341)" fill="#001932"/><path d="M102.987,40.274V29.318l1.574-.841v11.8Z" transform="translate(62.717 17.341)" fill="#001932"/><path d="M116.392,38.924H117.6v1.482h-1.39a2.9,2.9,0,0,1-2.706-1.39,3.029,3.029,0,0,1-2.177.841,3.091,3.091,0,0,1-2.561-1.208,4,4,0,0,1-.787-2.505,3.857,3.857,0,0,1,1.08-2.853,3.006,3.006,0,0,1,2.232-.933,2.954,2.954,0,0,1,1.738.512v-.787l1.591-.841v5.853a1.593,1.593,0,0,0,1.775,1.829m-3.366-4.352a2.155,2.155,0,0,0-1.664-.751,1.6,1.6,0,0,0-1.316.65,3.061,3.061,0,0,0,0,3.393,1.626,1.626,0,0,0,1.334.64,2.05,2.05,0,0,0,1.683-.841,5.081,5.081,0,0,1-.037-.513Zm-2.36-4.5a.906.906,0,0,1,0-1.812.785.785,0,0,1,.879.9q0,.915-.879.914m2.323,0a.906.906,0,0,1,0-1.812.785.785,0,0,1,.878.9q0,.915-.878.914" transform="translate(65.756 17.209)" fill="#001932"/><path d="M113.275,38.813V37.331h1.646a1.592,1.592,0,0,0,1.773-1.829v-2.56l1.574-.841v3.4a1.6,1.6,0,0,0,1.792,1.829h.842a1.6,1.6,0,0,0,1.792-1.829V32.321l1.574-.824v4a1.592,1.592,0,0,0,1.773,1.829h.859a1.6,1.6,0,0,0,1.794-1.829V31.716l1.572-.84v4.462q0,1.994,1.9,1.994h1.519v1.482h-1.648a2.972,2.972,0,0,1-2.505-1.115,2.765,2.765,0,0,1-2.4,1.115h-1.261a2.764,2.764,0,0,1-2.4-1.08,2.773,2.773,0,0,1-2.341,1.08h-1.261a2.826,2.826,0,0,1-2.4-1.08,2.768,2.768,0,0,1-2.4,1.08Z" transform="translate(68.982 18.802)" fill="#001932"/><path d="M125.279,38.813V37.331h1.646A1.592,1.592,0,0,0,128.7,35.5v-2.56l1.574-.841v3.4a1.6,1.6,0,0,0,1.792,1.829h.841A1.6,1.6,0,0,0,134.7,35.5V32.321l1.574-.824v4a1.592,1.592,0,0,0,1.773,1.829h.859A1.6,1.6,0,0,0,140.7,35.5V31.716l1.572-.84v4.682a3.177,3.177,0,0,1-.933,2.433,3.067,3.067,0,0,1-2.195.822h-1.261a2.764,2.764,0,0,1-2.4-1.08,2.773,2.773,0,0,1-2.341,1.08h-1.261a2.826,2.826,0,0,1-2.4-1.08,2.768,2.768,0,0,1-2.4,1.08Z" transform="translate(76.292 18.802)" fill="#001932"/><path d="M146.633,39.277v1.48h-2.267a3.4,3.4,0,0,1-1.353,2.6,3.881,3.881,0,0,1-2.452.841,4.522,4.522,0,0,1-2.14-.529v-1.39a4.093,4.093,0,0,0,1.921.512,2.561,2.561,0,0,0,1.693-.6,1.885,1.885,0,0,0,.74-1.445q-.951-.036-1.409-.072a3.934,3.934,0,0,1-2.98-1.335,4.04,4.04,0,0,1-.841-2.653,4.335,4.335,0,0,1,1.06-3.109,3.32,3.32,0,0,1,2.505-.988,3.208,3.208,0,0,1,2.507.97,3.3,3.3,0,0,1,.75,2.249v3.475Zm-4.278-9.585-.422.787h-3.017l.42-.787h.494a1.4,1.4,0,0,1-.183-.7,1.254,1.254,0,0,1,.4-.924,1.316,1.316,0,0,1,.951-.393,1.51,1.51,0,0,1,.879.293v.8a1.222,1.222,0,0,0-.769-.311q-.676,0-.676.6a.982.982,0,0,0,.256.621Zm.42,6.219q0-1.866-1.665-1.866a1.766,1.766,0,0,0-1.48.687,3.055,3.055,0,0,0-.531,1.911,2.245,2.245,0,0,0,2.341,2.542c.293.037.737.068,1.335.092Z" transform="translate(83.762 16.856)" fill="#001932"/><path d="M154.29,37.422h1.224V38.9h-1.389a3.077,3.077,0,0,1-2.4-.969,3.444,3.444,0,0,1-5.432.018,3.063,3.063,0,0,1-2.4.951h-1.389v-1.48h1.205a1.6,1.6,0,0,0,1.792-1.829v-.6a4.653,4.653,0,0,1,1.043-3.257,3.48,3.48,0,0,1,5.158.293,4.952,4.952,0,0,1,.8,2.964v.6a1.593,1.593,0,0,0,1.775,1.829m-5.284.365a1.638,1.638,0,0,0,1.416-.75,3.577,3.577,0,0,0,.52-2.068q0-2.78-1.936-2.78t-1.921,2.78q0,2.817,1.921,2.817" transform="translate(86.787 18.711)" fill="#001932"/><path d="M149.913,40.274V38.792h.969q1.9,0,1.9-1.994v-7.48l1.591-.841v8.341a3.443,3.443,0,0,1-.969,2.578,3.32,3.32,0,0,1-2.4.879Z" transform="translate(91.294 17.341)" fill="#001932"/><path d="M154.732,40.274V29.318l1.574-.841v11.8Z" transform="translate(94.229 17.341)" fill="#001932"/></g></g><g transform="translate(140 69.262)"><g transform="translate(0 0.001)" clip-path="url(#a)"><path d="M13.853,24.407a19.265,19.265,0,1,0,20.9,0L32.46,27.913a15.074,15.074,0,0,1,1.955,23.846v-8c-.9,1.437-2.438,4.05-4.266,4.4v6.318a14.972,14.972,0,0,1-3.749,1.03V46.088a7.162,7.162,0,0,1-4.266,3.369V55.5a14.945,14.945,0,0,1-3.519-.953V49.239a6.439,6.439,0,0,1-4.128-4.577h-.138V51.9a15.074,15.074,0,0,1,1.8-23.988Z" transform="translate(-1.067 -5.169)" fill="#0d0ce3"/><path d="M10.548,20.076A23.233,23.233,0,0,0,8.136,57.2l1.236-2.136a20.811,20.811,0,0,1,2.5-32.96Zm25.377,0L34.6,22.1a20.818,20.818,0,0,1,2.19,33.243l1.227,2.133a23.242,23.242,0,0,0-2.088-37.4" transform="translate(0 -4.252)" fill="#1a1a1a"/><path d="M25.6,24.938a12.478,12.478,0,0,0-.744-3,34.082,34.082,0,0,1-2.07-5.584,10.232,10.232,0,0,1-.323-2.368c-.061-1.5-.032-1.559.5-1.092.308.273,1.025.377,1.149.169a5.584,5.584,0,0,0-.054-1.145,19.2,19.2,0,0,1,.2-4.377c.06-.113.195.017.519.5.449.667,1.02,1.138,1.262,1.042.091-.037.154-.348.192-.943a6.24,6.24,0,0,1,.378-1.792,9.789,9.789,0,0,0,.9-3.647,6.291,6.291,0,0,0-.125-1.9,3.518,3.518,0,0,1-.133-.795c.117-.121.941.693,1.335,1.318a8.578,8.578,0,0,1,1.192,5.031c0,.983.037,1.481.109,1.481A3.262,3.262,0,0,0,31.1,7.026a2.577,2.577,0,0,0,.313-.84c.062-.319.156-.579.206-.579a1.422,1.422,0,0,1,.272.612,12.414,12.414,0,0,1-.019,4.23c-.235,1.378-.234,1.37-.035,1.413.281.061.966-.677,1.217-1.311a1.655,1.655,0,0,1,.31-.581c.149,0,.217.78.161,1.851a14.412,14.412,0,0,1-1.026,4.323,25.091,25.091,0,0,0-.769,2.554c-.269,1.149-1.167,6.173-1.167,6.173Z" transform="translate(-4.751 0)" fill="#f60400"/><path d="M17.453,70.436a1.88,1.88,0,1,1-1.856-1.9,1.878,1.878,0,0,1,1.856,1.9" transform="translate(-2.9 -14.513)" fill="#0d0ce3"/><path d="M22.194,72.881a1.88,1.88,0,1,1-1.856-1.9,1.88,1.88,0,0,1,1.856,1.9" transform="translate(-3.904 -15.031)" fill="#0d0ce3"/><path d="M30.854,73.9a1.88,1.88,0,1,1-1.88-1.88,1.88,1.88,0,0,1,1.88,1.88" transform="translate(-5.738 -15.253)" fill="#0d0ce3"/><path d="M39.418,72.479a1.88,1.88,0,1,1-1.744-2.007,1.881,1.881,0,0,1,1.744,2.007" transform="translate(-7.552 -14.923)" fill="#0d0ce3"/><path d="M44.343,70.43A1.88,1.88,0,1,1,42.6,68.425a1.879,1.879,0,0,1,1.744,2.005" transform="translate(-8.595 -14.49)" fill="#0d0ce3"/><path d="M34.46,40.364a.389.389,0,0,0-.308.12.337.337,0,0,0-.081.22.4.4,0,0,0,.08.243.373.373,0,0,0,.31.131h.067A4.754,4.754,0,0,0,35.5,41a1,1,0,0,0,.523-.262,2.083,2.083,0,0,0,.278-.472,1.453,1.453,0,0,0,.112-.564,2.772,2.772,0,0,0-.183-.888,5.312,5.312,0,0,0-.374-.811h-.028a4.291,4.291,0,0,0-.419.629q.226.434.388.8a1.735,1.735,0,0,1,.169.573.17.17,0,0,1-.085.131.966.966,0,0,1-.233.114,1.866,1.866,0,0,1-.463.087c-.185.013-.4.02-.635.019Zm.419-3.578c.111.093.221.188.33.281s.219.191.326.292A2.262,2.262,0,0,0,36,36.814a5.082,5.082,0,0,0-.669-.6q-.226.264-.451.568" transform="translate(-7.215 -7.67)"/><path d="M29.794,40.215a.39.39,0,0,0-.308.121.339.339,0,0,0-.081.22.392.392,0,0,0,.079.242.375.375,0,0,0,.311.131h.1a3.149,3.149,0,0,0,.673-.085,7.867,7.867,0,0,0,.92-.271,6.694,6.694,0,0,0,.967.271,4.38,4.38,0,0,0,.855.085h.161v-.713h-.178a3.144,3.144,0,0,1-.87-.1,2.812,2.812,0,0,0,.271-.6,2.347,2.347,0,0,0,.1-.7,1.934,1.934,0,0,0-.54-1.249.5.5,0,0,0-.323-.161.837.837,0,0,0-.389.142,2.2,2.2,0,0,0-.453.376,1.769,1.769,0,0,0-.392.642,2.1,2.1,0,0,0-.11.668,2.237,2.237,0,0,0,.03.413,1.339,1.339,0,0,0,.165.434q-.188.045-.426.088a2.909,2.909,0,0,1-.471.046Zm1.817-.312a1.185,1.185,0,0,1-.532-.3.934.934,0,0,1-.232-.437,1.458,1.458,0,0,1,.354-.62.883.883,0,0,1,.6-.311.432.432,0,0,1,.305.14,1.426,1.426,0,0,1,.248.36,2.115,2.115,0,0,1,.087.218,1.029,1.029,0,0,1,.045.285.625.625,0,0,1-.3.39,1.549,1.549,0,0,1-.584.278m-.451-3.817.33.281c.109.094.218.192.327.293a2.264,2.264,0,0,0,.463-.546,5.074,5.074,0,0,0-.669-.6q-.225.262-.451.568" transform="translate(-6.227 -7.522)"/><path d="M23.477,40.037a9.131,9.131,0,0,1-1.544-.189l-.022.067a8.086,8.086,0,0,0,.808.724l.423.05a1.227,1.227,0,0,0-.132.344c-.024.113-.043.222-.058.326L23,41.4l.48-.674c.094.008.2.014.307.017s.214,0,.312,0a11.473,11.473,0,0,0,2.168-.178,8.856,8.856,0,0,0,1.805.178H28.2v-.713h-.218c-.107,0-.213,0-.315-.006a2.008,2.008,0,0,1-.259-.022,2.872,2.872,0,0,0,.2-.406,1.178,1.178,0,0,0,.086-.419,1.371,1.371,0,0,0-.4-.977,1.319,1.319,0,0,0-.927-.393,1.887,1.887,0,0,0-.533.082,2.134,2.134,0,0,0-.5.225,4.134,4.134,0,0,0-.579.43q-.294.258-.6.589h-.021a2.365,2.365,0,0,0,.143-.483,3.487,3.487,0,0,0,.051-.631q0-.9-.05-1.805l.363-.279a2.514,2.514,0,0,1-.474-1.226l-.039-.039a1.518,1.518,0,0,0-.322.306.557.557,0,0,0-.113.335c0,.087,0,.178.011.273s.013.186.022.273q.05.507.093,1.223t.047,1.336q0,.42-.015.663a2.315,2.315,0,0,1-.069.445Zm.356,0a7.633,7.633,0,0,1,1.18-1.089,1.844,1.844,0,0,1,1.06-.377,1.281,1.281,0,0,1,.818.3.883.883,0,0,1,.341.65,1.417,1.417,0,0,1-.985.413,13.254,13.254,0,0,1-1.9.1Z" transform="translate(-4.64 -7.344)"/></g></g></g></svg>