<svg xmlns="http://www.w3.org/2000/svg" xmlns:xlink="http://www.w3.org/1999/xlink" width="182" height="162" viewBox="0 0 182 162"><defs><linearGradient id="a" x1="0.5" y1="1.137" x2="0.5" y2="-0.031" gradientUnits="objectBoundingBox"><stop offset="0.058" stop-color="#0e1510"/><stop offset="0.122" stop-color="#19341b"/><stop offset="0.197" stop-color="#245125"/><stop offset="0.28" stop-color="#2c692d"/><stop offset="0.374" stop-color="#337c34"/><stop offset="0.485" stop-color="#388938"/><stop offset="0.63" stop-color="#3b903b"/><stop offset="0.931" stop-color="#3c933c"/></linearGradient><linearGradient id="b" x1="0.408" y1="1.036" x2="0.697" y2="-0.491" gradientUnits="objectBoundingBox"><stop offset="0" stop-color="#fff"/><stop offset="0.095" stop-color="#fff" stop-opacity="0.725"/><stop offset="0.193" stop-color="#fff" stop-opacity="0.471"/><stop offset="0.282" stop-color="#fff" stop-opacity="0.267"/><stop offset="0.359" stop-color="#fff" stop-opacity="0.122"/><stop offset="0.421" stop-color="#fff" stop-opacity="0.031"/><stop offset="0.461" stop-color="#fff" stop-opacity="0"/></linearGradient><linearGradient id="c" x1="0.434" y1="1.005" x2="0.686" y2="-0.458" xlink:href="#b"/><linearGradient id="d" x1="0.399" y1="0.927" x2="0.781" y2="-0.375" xlink:href="#b"/><linearGradient id="e" x1="0.302" y1="0.929" x2="0.899" y2="-0.339" xlink:href="#b"/><linearGradient id="f" x1="0.369" y1="0.906" x2="0.689" y2="-0.303" xlink:href="#b"/><linearGradient id="g" x1="0.492" y1="0.635" x2="0.567" y2="-0.685" xlink:href="#b"/><linearGradient id="h" x1="0.41" y1="0.906" x2="0.733" y2="-0.258" xlink:href="#b"/><linearGradient id="i" x1="0.371" y1="0.914" x2="0.75" y2="-0.26" xlink:href="#b"/></defs><g transform="translate(-233 -384)"><g transform="translate(606 -16)"><rect width="182" height="162" transform="translate(-373 400)" fill="#fff"/></g><g transform="translate(260.005 393)"><g transform="translate(2.237)"><path d="M95.112,70.415q.6.952.892,1.344a1.281,1.281,0,0,1-.1.124.463.463,0,0,0-.093.14l3.138,1.441a3.253,3.253,0,0,1,.573.51,3.834,3.834,0,0,1,.691.862,3.576,3.576,0,0,1,.381,1.489,3.448,3.448,0,0,1-.45,1.91,2.435,2.435,0,0,1-1.117,1.089,1.6,1.6,0,0,1-1.508-.121,5.119,5.119,0,0,1-1.533-1.615q-.77-1.138-.629-1.374c.025-.044.063-.052.115-.024a5.83,5.83,0,0,1,.578.787,3.147,3.147,0,0,0,.829.924,1.221,1.221,0,0,0,1.147.014,1.869,1.869,0,0,0,.878-.787,5.483,5.483,0,0,0,.461-1.238q.279-1.023-.033-1.147t-1.545-.663L95.194,73a.933.933,0,0,0-.718-.028.581.581,0,0,1-.447.044,2.392,2.392,0,0,1-.606-.683,2.22,2.22,0,0,1-.409-.8.787.787,0,0,0,.85-.072A5.078,5.078,0,0,0,94.6,70.8Q94.973,70.406,95.112,70.415Z" transform="translate(-93.014 -36.836)" fill="#1a1818"/><path d="M101.729,70.76c.06.039.079.29.061.749a2.263,2.263,0,0,1-.113.817,2.439,2.439,0,0,1-.7.371,2.189,2.189,0,0,1-.678.241,1.854,1.854,0,0,1-.124-.777,2.24,2.24,0,0,1,.024-.828,1.618,1.618,0,0,1,.705-.571A.828.828,0,0,1,101.729,70.76Z" transform="translate(-93.571 -36.855)" fill="#1a1818"/><path d="M103.81,64.7l.894,1.393a6.191,6.191,0,0,0-1.24,1.094,4.5,4.5,0,0,0-.853,1.616,5.011,5.011,0,0,1,2.416,1.777q.691.825.554,1a33.678,33.678,0,0,1-3.45-1.9.984.984,0,0,1-.343-.571q-.063-.315-.157-.721a4.078,4.078,0,0,1,.51-1.925,1.037,1.037,0,0,0-.894.346,1.416,1.416,0,0,0-.157.944q.052.674.058.664c-.028.038-.143-.137-.34-.524a7.047,7.047,0,0,1-.505-1.18,1.563,1.563,0,0,1,.088-1.446q.305-.4,1.731-.5Q102.163,64.768,103.81,64.7Z" transform="translate(-93.568 -36.396)" fill="#1a1818"/><path d="M107.431,63.583q.079.071-.036.751a2.251,2.251,0,0,1-.217.8,2.427,2.427,0,0,1-.736.279,2.211,2.211,0,0,1-.7.157,1.873,1.873,0,0,1-.024-.787,2.25,2.25,0,0,1,.131-.817,1.621,1.621,0,0,1,.773-.472A.829.829,0,0,1,107.431,63.583Z" transform="translate(-93.997 -36.298)" fill="#1a1818"/><path d="M115,54.03a2.562,2.562,0,0,1,.571.839,6.423,6.423,0,0,0,.367.993l-1.582,1.454a2.6,2.6,0,0,0-.307-.046l-.014.342-1.147,1.054a3.505,3.505,0,0,1,.315.749,3.01,3.01,0,0,1,.23,1.087,3.433,3.433,0,0,1-.4,1.091,4.092,4.092,0,0,1-.8,1.144q-1.969,1.81-3.062.618a4,4,0,0,1-.7-1.182,7.538,7.538,0,0,1-.352-1.464q-.183-1.116-.039-1.246c.035-.033.085-.013.157.061a2.636,2.636,0,0,1,.2.888,2.164,2.164,0,0,0,.483,1.2,1.248,1.248,0,0,0,1.416.356,2.738,2.738,0,0,0,.99-.614,7.033,7.033,0,0,0,.807-.927q.532-.705.5-.936a2.9,2.9,0,0,0-.787-.5,5.614,5.614,0,0,0-1.533-.508q-.087-.417-.324-1.706.444.145,1.344.425a.867.867,0,0,0,.866-.131l.873-.8a4.107,4.107,0,0,1-.327-.565c-.025-.175-.063-.436-.113-.787-.049-.425-.011-.7.113-.809a8.215,8.215,0,0,0,.85,1.574.209.209,0,0,0,.065.052l.817-.751q-.386-.351-.472-.436a1.936,1.936,0,0,1-.145-.839,3.2,3.2,0,0,1,.017-.9ZM110.3,52.013q.055.061-.024.551a1.39,1.39,0,0,1-.157.557,1.752,1.752,0,0,1-.552.076,1.678,1.678,0,0,1-.537,0,1.655,1.655,0,0,1-.008-.589,1.748,1.748,0,0,1,.083-.585,2.748,2.748,0,0,1,.595-.033,2.164,2.164,0,0,1,.6.024Zm1.821,0a7.008,7.008,0,0,1,.033.707,1.513,1.513,0,0,1-.047.629,5.1,5.1,0,0,1-.669.2c-.425.113-.67.173-.738.183q-.038.43-.06.921a3.4,3.4,0,0,1-.7.245,2.472,2.472,0,0,1-.711.116q.022-.445.065-1.342a2.7,2.7,0,0,0,.667-.083,1.613,1.613,0,0,0,.6-.2,1.032,1.032,0,0,0,.076-.472,4.545,4.545,0,0,1,.047-.541Z" transform="translate(-94.17 -35.416)" fill="#1a1818"/><path d="M127.622,48.293l-7.574,4.688a1.835,1.835,0,0,1-1.2.291,1.308,1.308,0,0,1-1.01-.645,4.326,4.326,0,0,1-.436-1.1q-.247-.881.039-1.059a.074.074,0,0,1,.115.027,1.862,1.862,0,0,1,.138.414,1.751,1.751,0,0,0,.175.472q.45.727,1.353.168l.9-.559q.392-.242.209-.538-1.009-1.306-2.2-2.705c-.072-.02-.173-.052-.3-.1a.493.493,0,0,1-.217-.219,1.772,1.772,0,0,1-.057-.82,3.2,3.2,0,0,1,.135-.847,1.818,1.818,0,0,0,1.553.489l.656-.038c.027.2.06.5.094.9a.757.757,0,0,1-.275.754,3.029,3.029,0,0,1,.821,1.519c.121.406.184.611.186.614a12.69,12.69,0,0,1,1.207-2.121,7.049,7.049,0,0,1,1.446-1.791,2,2,0,0,1,1.416-.03,1.95,1.95,0,0,1,1.259.629q.019.19.044.6l.669-.414Zm-2.493-.393a1.731,1.731,0,0,0-.9-.3,1.49,1.49,0,0,0-.927.168,4.878,4.878,0,0,0-1.731,2.351q.112-.055.787-.472.892-.551,2.774-1.752Z" transform="translate(-94.884 -34.942)" fill="#1a1818"/><path d="M129.283,41.26q.044.1-.263.683a1.924,1.924,0,0,1-.425.642,1.97,1.97,0,0,1-.741-.113,1.889,1.889,0,0,1-.672-.228,1.878,1.878,0,0,1,.219-.751,1.961,1.961,0,0,1,.365-.7,3.462,3.462,0,0,1,.771.194,2.771,2.771,0,0,1,.746.275Zm4.145,4.529-5.456,2.518-.691-1.5,1.33-.614c-.079-.2-.123-.315-.132-.356a.856.856,0,0,1,0-.378,8.589,8.589,0,0,1,.554-1.6,3.05,3.05,0,0,1,1.281-1.574.755.755,0,0,1,.844.222,2.272,2.272,0,0,1,.557.757,1.089,1.089,0,0,1,.131.551c-.017.178-.052.489-.1.944l.991-.458Zm-2.361-1.043a1,1,0,0,0-.378-.437.629.629,0,0,0-.664-.09,1.731,1.731,0,0,0-.494.45c-.225.264-.315.447-.255.548.052.14.236.214.551.22a1.559,1.559,0,0,0,.645-.109,1.851,1.851,0,0,0,.37-.242c.181-.145.258-.258.225-.346Z" transform="translate(-95.642 -34.558)" fill="#1a1818"/><path d="M134.952,38.758a2.445,2.445,0,0,1-.238.718q-.279.675-.283.7a8.5,8.5,0,0,0-1.616-.131q.272-.674.647-1.479A4.79,4.79,0,0,0,134.952,38.758Zm3.073,5.371-.847.315a1.127,1.127,0,0,1-1.4-.574q-.072.472-.186,1.165l-2.175.806-.573-1.544,2.553-.944a4.73,4.73,0,0,0-.337-1.279q.039-.167.258-.8a6.5,6.5,0,0,1,.275-.751,8.958,8.958,0,0,1,.532,1.78.546.546,0,0,0,.364.417.812.812,0,0,0,.595.009l.371-.137Z" transform="translate(-96.079 -34.386)" fill="#1a1818"/><path d="M139.822,37.732l-.7,1.731q.069.233.762,1.917a4.827,4.827,0,0,1,.145,1.054q0,.275.028.812a.29.29,0,0,1-.143.258.86.86,0,0,1-.231.113.673.673,0,0,1-.087.02l-1.633.491-.472-1.574,1.515-.456c.02-.014.014-.079-.02-.19a13.711,13.711,0,0,0-.751-1.654l-.689-1.371q-.26-.1-.582-.255l.216-1.089q.209-.883.345-.924c.014.033.06.129.135.286a.683.683,0,0,0,.356.386A6,6,0,0,0,139.822,37.732Z" transform="translate(-96.395 -34.233)" fill="#1a1818"/><path d="M143.341,40.139a3.9,3.9,0,0,1-.2,2.708l-1.819-4.6a4.09,4.09,0,0,1,.234-1.1q.253-.884.315-1.054.381.867.551,1.3a24.146,24.146,0,0,1,.917,2.744Z" transform="translate(-96.73 -34.197)" fill="#1a1818"/><path d="M151.71,41.308l-.8.127a1.86,1.86,0,0,1-.291.009.741.741,0,0,1-.455-.113,5.953,5.953,0,0,1-.606,1.685q-.656,1.294-1.416,1.416a5.494,5.494,0,0,1-1.855-.315q-1.457-.409-1.509-.743c-.013-.074,0-.113.028-.118l.537.22a1.951,1.951,0,0,0,1.037.135,2.959,2.959,0,0,0,1.74-1.081q.244-.272.714-.812a1.171,1.171,0,0,0,.373-.818,1.666,1.666,0,0,0-.57-.729l-.543-.482q.245-.648.629-1.528a4.256,4.256,0,0,1,.614.65,3.724,3.724,0,0,0,.711.707,1.377,1.377,0,0,0,1,.23l.4-.063Z" transform="translate(-96.999 -34.354)" fill="#1a1818"/><path d="M156.244,38.527a6.3,6.3,0,0,1,0,.859v.1q-.043.626-.14,1.379l-4.336.359-.135-1.643,3.648-.3a6.035,6.035,0,0,0-.412-.765,4.109,4.109,0,0,0-.7-.884q.192-.324.751-1.531a5.468,5.468,0,0,1,1.237,1.923,2.609,2.609,0,0,1,.083.5Zm-.348,4.115q-.6,1.069-.763,1.081a4.912,4.912,0,0,1-.6-.271,6.038,6.038,0,0,1-.622-.315q-.271.315-.563.7a3.754,3.754,0,0,1-.65-.26,2.641,2.641,0,0,1-.59-.343q.291-.362.777-1.059a2.526,2.526,0,0,0,.538.353,1.469,1.469,0,0,0,.576.225q.052,0,.315-.334c.2-.253.315-.392.338-.414Z" transform="translate(-97.523 -34.196)" fill="#1a1818"/><path d="M163.751,40.029l-.776.25a1.81,1.81,0,0,1-.285.055.751.751,0,0,1-.472-.041,5.952,5.952,0,0,1-.337,1.758q-.448,1.379-1.179,1.616a5.522,5.522,0,0,1-1.888-.025q-1.5-.179-1.607-.5c-.024-.071-.019-.112.009-.121l.565.134a1.936,1.936,0,0,0,1.045-.028,2.951,2.951,0,0,0,1.553-1.339q.2-.305.581-.913a1.166,1.166,0,0,0,.241-.866q-.077-.241-.675-.629c-.137-.088-.34-.22-.611-.392q.142-.678.387-1.607a4.2,4.2,0,0,1,.707.546,3.733,3.733,0,0,0,.814.589,1.379,1.379,0,0,0,1.028.071l.382-.124Z" transform="translate(-97.958 -34.294)" fill="#1a1818"/><path d="M168.941,41.117l-1.194-.1q-.412-.437-1.035-1.141-.3.4-.722.995l-2.806-.234L163.32,39l2.795.233v-.024l-2.159-2.449a12.142,12.142,0,0,1,.787-2.192l4.564-.526-.557,1.564-3.527.376,3.173,3.44.688.057Z" transform="translate(-98.413 -34.039)" fill="#1a1818"/><path d="M173.772,41.887l-.892-.143q-.85-.135-.944-1.19l-.733.924-2.29-.367.26-1.627,2.688.43a4.673,4.673,0,0,0,.337-1.279q.116-.126.617-.571a6.85,6.85,0,0,1,.609-.518,8.939,8.939,0,0,1-.409,1.811.544.544,0,0,0,.112.541.811.811,0,0,0,.513.3l.39.061Zm.606-6.295q-.91.87-1.091.842a4.978,4.978,0,0,1-.59-.417l-.59-.46q-.373.233-.774.54a3.011,3.011,0,0,1-.7-.458,2.632,2.632,0,0,1-.472-.441q.4-.277,1.1-.817a3.169,3.169,0,0,0,.5.472,1.731,1.731,0,0,0,.552.357,1.288,1.288,0,0,0,.414-.238,4.037,4.037,0,0,1,.472-.3Z" transform="translate(-98.856 -34.066)" fill="#1a1818"/><path d="M178.487,37.226l-1.459,1.16q-.054.236-.279,2.046a4.811,4.811,0,0,1-.392.99c-.088.157-.212.4-.375.721a.287.287,0,0,1-.252.157.892.892,0,0,1-.258-.014.658.658,0,0,1-.085-.025l-1.665-.375.36-1.607,1.544.348c.025,0,.05-.061.077-.176a13.6,13.6,0,0,0,.157-1.81l.072-1.533q-.175-.214-.381-.51l.722-.842q.615-.666.754-.629,0,.052-.022.315a.684.684,0,0,0,.121.511,6.042,6.042,0,0,0,1.358,1.273Z" transform="translate(-99.225 -34.116)" fill="#1a1818"/><path d="M185.545,45.215l-1.355-.455a.843.843,0,0,1-.595-.771q-.011-.041.03-1.073-.157.011-.667.541-.389.4-.68.3a.8.8,0,0,1-.088-.036,14.859,14.859,0,0,0-2.307-1.248,4.761,4.761,0,0,1,.656-.969,3.455,3.455,0,0,1,1.013-.962,5.575,5.575,0,0,1,1.251-.277,4.667,4.667,0,0,0,1.146-.258.682.682,0,0,0,.013-.26.713.713,0,0,1,.014-.266q.359-.271,1.36-1.138a11.78,11.78,0,0,1-.268,2.37,12.076,12.076,0,0,0-.269,2.2q.117.356.8.585l.472.157Zm-.4-7.277a3.744,3.744,0,0,1-1.182.629,6.015,6.015,0,0,1-.489-.482,6.185,6.185,0,0,1-.482-.522q-.393.167-.807.382a3.285,3.285,0,0,1-.595-.543,3.485,3.485,0,0,1-.4-.494q.411-.2,1.169-.629a2.467,2.467,0,0,0,.387.535,1.646,1.646,0,0,0,.472.433,1.1,1.1,0,0,0,.445-.157,3.076,3.076,0,0,1,.493-.208Zm-1.44,4.249a12.729,12.729,0,0,0,.157-1.385c-.027-.009-.115.039-.268.146a2.046,2.046,0,0,1-.957.382.651.651,0,0,0-.386.157,5.678,5.678,0,0,0,.787.406q.543.25.666.293Z" transform="translate(-99.697 -34.209)" fill="#1a1818"/><path d="M188.385,48.715q-1.034.663-1.18.6a4.909,4.909,0,0,1-.4-.519,6.132,6.132,0,0,1-.4-.574q-.386.157-.828.359a3.753,3.753,0,0,1-.452-.533,2.626,2.626,0,0,1-.364-.579q.425-.184,1.182-.573a2.642,2.642,0,0,0,.315.563,1.479,1.479,0,0,0,.4.472,1.245,1.245,0,0,0,.436-.148c.3-.129.463-.2.493-.206Zm2.231-3.475a6.124,6.124,0,0,1-.4.759l-.05.088q-.33.532-.77,1.154l-4-1.712.648-1.514,3.365,1.44a6.015,6.015,0,0,0,0-.87,4.108,4.108,0,0,0-.2-1.1q.315-.2,1.379-1a5.443,5.443,0,0,1,.194,2.279,2.454,2.454,0,0,1-.164.482Z" transform="translate(-100.073 -34.686)" fill="#1a1818"/><path d="M194.487,47.9a6.18,6.18,0,0,1-1.87,2.167q-1.366,1.012-2.265.552a12.5,12.5,0,0,1-1.624-1.023q-1.042-.752-.924-.984.032-.063.828.3a4.372,4.372,0,0,0,1.467.452,6.307,6.307,0,0,0,1.914-.241,2.36,2.36,0,0,0,1.564-.984.786.786,0,0,0,.079-.231,3.934,3.934,0,0,1-.834.568,1.163,1.163,0,0,1-.91-.14q-.856-.439-.263-1.6c.046-.091.094-.175.142-.252a3.79,3.79,0,0,1,1.218-1.035q1.024-.629,1.467-.4.483.247.387,1.357a4.119,4.119,0,0,1-.376,1.5Zm-1.015-.7a.768.768,0,0,0,.068-.562.483.483,0,0,0-.231-.337.611.611,0,0,0-.442-.017.774.774,0,0,0-.4.217,1.651,1.651,0,0,0,.131.326.987.987,0,0,0,.356.315.741.741,0,0,0,.513.058Z" transform="translate(-100.305 -34.88)" fill="#1a1818"/><path d="M197.39,48.456a3.9,3.9,0,0,1-2.027,1.808l1.888-4.564a4.091,4.091,0,0,1,.944-.629q.8-.46.963-.535-.329.888-.508,1.316A24.053,24.053,0,0,1,197.39,48.456Z" transform="translate(-100.887 -34.844)" fill="#1a1818"/><path d="M200.858,53.791l-.681-.447a1.913,1.913,0,0,1-.222-.189.738.738,0,0,1-.26-.39,5.98,5.98,0,0,1-1.583.839,2.257,2.257,0,0,1-2,.093,5.152,5.152,0,0,1-1.12-1.465q-.751-1.259-.571-1.528c.05-.076.091-.1.124-.082q-.315-.206.175.486a3.742,3.742,0,0,0,.727.85,3.231,3.231,0,0,0,1.932.315q1.66-.109,1.9-.472a1.616,1.616,0,0,0,.118-1q-.069-.71-.115-.64.607-.315,1.486-.711a4.166,4.166,0,0,1,.017.894,3.7,3.7,0,0,0,.052,1,1.376,1.376,0,0,0,.589.847l.335.22Zm2.073-5.859q-.063.094-.659.138a1.646,1.646,0,0,1-.707-.027,1.933,1.933,0,0,1-.245-.614,1.776,1.776,0,0,1-.142-.629,4,4,0,0,1,1.369-.258,2.942,2.942,0,0,1,.228.688,3.016,3.016,0,0,1,.149.7Z" transform="translate(-100.81 -34.998)" fill="#1a1818"/><path d="M207.226,51.473l-1.808.453q-.146.192-1.1,1.745a4.811,4.811,0,0,1-.766.738q-.222.167-.637.5a.29.29,0,0,1-.294.036.876.876,0,0,1-.227-.12.635.635,0,0,1-.068-.058l-1.36-1.029.993-1.314,1.259.955c.024.008.071-.035.142-.129a13.608,13.608,0,0,0,.894-1.574l.7-1.366c-.047-.179-.093-.386-.137-.629l1.006-.472q.836-.351.944-.268c-.019.03-.069.124-.157.279a.689.689,0,0,0-.1.516A6,6,0,0,0,207.226,51.473Z" transform="translate(-101.318 -35.185)" fill="#1a1818"/><path d="M207.447,55.729a3.9,3.9,0,0,1-2.3,1.438l2.636-4.181a4.11,4.11,0,0,1,1.031-.463q.862-.315,1.039-.364-.472.818-.724,1.21a23.984,23.984,0,0,1-1.678,2.359Z" transform="translate(-101.64 -35.432)" fill="#1a1818"/><path d="M212.218,63.593l-1.009-1.012a.845.845,0,0,1-.187-.957q.009-.041.507-.944a1.857,1.857,0,0,0-.839.186q-.526.181-.743-.035a.659.659,0,0,1-.063-.071,14.969,14.969,0,0,0-1.506-2.15,4.751,4.751,0,0,1,1.02-.573,3.451,3.451,0,0,1,1.336-.408,5.569,5.569,0,0,1,1.243.315,4.668,4.668,0,0,0,1.138.282.679.679,0,0,0,.129-.227.683.683,0,0,1,.132-.231q.442-.083,1.731-.409a11.735,11.735,0,0,1-1.3,2,12.035,12.035,0,0,0-1.223,1.843q-.055.371.453.881l.349.351Zm-.294-3.531a13,13,0,0,0,.762-1.168c-.019-.019-.121-.016-.305.013a2.046,2.046,0,0,1-1.026-.087.651.651,0,0,0-.423-.025,5.519,5.519,0,0,0,.516.711q.386.463.478.556ZM215.11,56.9a3.707,3.707,0,0,1-1.336.03,6.09,6.09,0,0,1-.222-.648,6.323,6.323,0,0,1-.2-.683c-.283-.017-.582-.024-.892-.019a3.21,3.21,0,0,1-.291-.752,3.494,3.494,0,0,1-.132-.617q.46,0,1.327-.039a2.487,2.487,0,0,0,.109.652,1.623,1.623,0,0,0,.228.6,1.1,1.1,0,0,0,.472.06,3.116,3.116,0,0,1,.535.035Z" transform="translate(-101.888 -35.587)" fill="#1a1818"/><path d="M221.486,63.343l-1.526.7q-.976-.629-2.833-1.873.186,3.915-.315,4.337-.678.34-1.7.763l-3.009-3.579,1.259-1.059,2.474,2.94q-.016-1.043-.09-2.261a.217.217,0,0,1-.33-.054,4.352,4.352,0,0,1,.157-1.7l1.777-.971Z" transform="translate(-102.177 -36.082)" fill="#1a1818"/><path d="M218.8,72.678l-.472-.663a1.942,1.942,0,0,1-.14-.255.754.754,0,0,1-.1-.456,5.98,5.98,0,0,1-1.778.212,2.255,2.255,0,0,1-1.888-.629,5.521,5.521,0,0,1-.548-1.8q-.285-1.487-.013-1.682c.061-.044.1-.052.118-.027l.044.578a1.938,1.938,0,0,0,.345.988,2.954,2.954,0,0,0,1.747,1.073q.353.1,1.047.275a1.168,1.168,0,0,0,.9-.033,1.656,1.656,0,0,0,.4-.836q.065-.236.189-.7.689-.072,1.649-.12a4.176,4.176,0,0,1-.307.84,3.719,3.719,0,0,0-.315.952,1.375,1.375,0,0,0,.244,1l.233.327Z" transform="translate(-102.296 -36.6)" fill="#1a1818"/><path d="M226.067,77.164l-1.564.892a1.822,1.822,0,0,1-.928.354c-.71.093-1.083.157-1.116.168l-1.128-1.947a1.274,1.274,0,0,0,.124-.291,2.1,2.1,0,0,1-.348-.093l-1.116-1.926a1.052,1.052,0,0,0,.315-.386,2.308,2.308,0,0,1-.365-.053.606.606,0,0,1-.291-.151,11.473,11.473,0,0,1-.685-1.18l1.426-.826.886,1.528a1.849,1.849,0,0,0,.85-.288,5.723,5.723,0,0,1,1.637.246c.05.016.016.06-.1.129a4.108,4.108,0,0,1-1.057.4,4.177,4.177,0,0,1-.834.157q-.069.129.367.878.2.353.522.844a4.474,4.474,0,0,1,.716-.238,8.236,8.236,0,0,1,.836.076q.682.094.774.253a9.506,9.506,0,0,0-1.854.555.255.255,0,0,0-.077.057l.595,1.026c.315-.231.508-.37.59-.417a2.024,2.024,0,0,1,.9.016,3.448,3.448,0,0,1,.927.216Zm1-1.445q-1.205-.127-1.309-.305a5.339,5.339,0,0,1-.049-.689c-.017-.436-.022-.688-.013-.757q-.408-.126-.886-.258a3.728,3.728,0,0,1-.09-.733,2.422,2.422,0,0,1,.035-.729l1.3.354a2.787,2.787,0,0,0-.049.674,1.653,1.653,0,0,0,.069.629,1.073,1.073,0,0,0,.445.178,2.663,2.663,0,0,1,.521.168Zm.412-1.761c-.044.025-.222-.024-.533-.148a1.464,1.464,0,0,1-.513-.269,1.563,1.563,0,0,1,.036-.56,1.393,1.393,0,0,1,.126-.524,1.649,1.649,0,0,1,.578.12,1.687,1.687,0,0,1,.557.212,2.431,2.431,0,0,1-.093.593,2.2,2.2,0,0,1-.156.576Z" transform="translate(-102.704 -36.939)" fill="#1a1818"/></g><g transform="translate(6.878 20.113)"><path d="M203.366,109.293A46.83,46.83,0,1,1,139,65.87l5.363,9.285a36.243,36.243,0,0,0-11.991,61.128v-14.39l10.588,6.581v14.41a36.149,36.149,0,0,0,8.41,2.28V128.476l10.588-6.581V145.13a35.686,35.686,0,0,0,8.41-2.345V128.477l10.588-6.581v14.151a36.168,36.168,0,0,0,11.76-24.592c.046-.721.065-1.44.065-2.161A36.3,36.3,0,0,0,168.7,75.158l5.351-9.285a46.828,46.828,0,0,1,29.312,43.42Z" transform="translate(-98.947 -56.601)" fill="url(#a)"/><path d="M219.4,108.522a57.388,57.388,0,0,1-16.624,40.4l-2.762-4.808a51.953,51.953,0,0,0,13.678-29.033,51.357,51.357,0,0,0,.415-6.564,52.22,52.22,0,0,0-31.946-48.067l2.675-4.625A57.452,57.452,0,0,1,219.4,108.521Z" transform="translate(-104.517 -55.829)" fill="#1a1818"/><path d="M108.118,86.754a52.036,52.036,0,0,0,9.332,57.362l-2.77,4.79A57.41,57.41,0,0,1,132.62,55.83l2.658,4.625A52.5,52.5,0,0,0,108.118,86.754Z" transform="translate(-98.051 -55.828)" fill="#1a1818"/><path d="M185.074,108.692v-.787h-.721v-5.98h.526V99.774h1.574V97H183.12v1.034h-.979v.886h-.787v4.762h-.579v-1h-.988V98.917h-3.749V95.87h1.136V93.931h-1.136v-5.8h.886V86.088h-.886V85.035h-1.416v-1h-4.033v1h-1.416v1.053H168.3v2.046h.886v1.127h.738v3.086h-.947v.944h-.787v3.83h1.745v.9h.444V99.4h.434v3.276h-.988v1h-1.635v-1h-.9V96.092h-.9v-.944h-4.189v-1.7h.7v-.886h.59V91.316h1.218V89.671H163.5v-.979h-1.292V66.414h.9V64.807h.812V63.219H163.1v-1.6h-2.627V60.6h-1.015V59.85H150.8V60.6H149.8v1.975H150.8V98.029h-.924v.886H149v.9h-2.428V96.646h.867v-1.44h.757V92.347h-.757V91.322h-1.015V89.906h.766V88.382H148.2V85.725h-1.006V84.562h-1.67V81.729h-3.665v2.833h-1.685v1.163h-1.559v.886h-1.043v1.763h1.671V89.9h.932v2.45h-.932v2.861h.932v5.409h-.582V98.029h-.979V97h-3.582v1.034h-.979v4.652h-2.464v1h-1.171v5.012H124.61v3.643h66.131v-3.64ZM152.11,63.213h3.028V88.691H152.11Zm0,30.075h3.028v4.735H152.11Z" transform="translate(-100.087 -56.138)" fill="#1a1818"/><path d="M159.876,166.333a4.871,4.871,0,1,0,4.871,4.871,4.871,4.871,0,0,0-4.871-4.871Z" transform="translate(-102.424 -64.325)" fill="#132217"/><path d="M175.024,163.636a4.871,4.871,0,1,0,4.871,4.871A4.871,4.871,0,0,0,175.024,163.636Z" transform="translate(-103.589 -64.118)" fill="#132217"/><circle cx="4.871" cy="4.871" r="4.871" transform="translate(80.549 94.648)" fill="#132217"/><path d="M129.576,158.36a4.871,4.871,0,1,0,4.871,4.871,4.871,4.871,0,0,0-4.871-4.871Z" transform="translate(-100.094 -63.712)" fill="#132217"/><circle cx="4.871" cy="4.871" r="4.871" transform="translate(38.595 99.156)" fill="#132217"/></g><g transform="translate(-0.005 96.812)"><path d="M92.981,144.122l-.787-1.91-1.02.058-.582-1.426,5.941-.143.6,1.459-4.343,4.059-.582-1.426Zm.872-.77,1.467-1.3-1.958.1Z" transform="translate(-90.592 -139.053)" fill="#1a1818"/><path d="M95.386,148.531l1.062,2.071-1.089.557-2.169-4.228,5.055.364-1-1.947,1.089-.559,2.1,4.092Z" transform="translate(-90.79 -139.368)" fill="#1a1818"/><path d="M98.258,153.63l1.226,1.978-1.039.644-2.5-4.04,5.067-.046-1.154-1.86,1.04-.644,2.422,3.909Z" transform="translate(-91 -139.741)" fill="#1a1818"/><path d="M102.2,159.916l-1.232-1.656-.973.315-.921-1.235,5.717-1.622.944,1.259-3.191,5.014-.919-1.235Zm.652-.963,1.1-1.624-1.87.584Z" transform="translate(-91.242 -140.205)" fill="#1a1818"/><path d="M108.069,159.72l-1.984,3.133,3.435-1.574.787.845-1.836,3.3,3.286-1.731,1.024,1.1-5.2,2.551-1-1.081,1.624-2.99-3.1,1.383-1-1.083,2.955-4.987Z" transform="translate(-91.624 -140.436)" fill="#1a1818"/><path d="M112.741,168.515l.381-3.506,1.3,1.136-.225,1.821,1.77-.472,1.3,1.138-3.434.829-1.758,2-1.086-.944Z" transform="translate(-92.154 -140.922)" fill="#1a1818"/><path d="M117.246,174.558l-1.651-1.237-.844.573-1.232-.924,5.023-3.177,1.259.944-1.638,5.712-1.232-.924Zm.351-1.1.59-1.868-1.627,1.091Z" transform="translate(-92.351 -141.29)" fill="#1a1818"/><path d="M123.008,176.229a2.863,2.863,0,0,1,2.914-1.478,3.536,3.536,0,0,1,2.167,1.205,2.914,2.914,0,0,1,.551,1.017,2.848,2.848,0,0,1,.105,1.124,3.034,3.034,0,0,1-1.12,2.016,2.863,2.863,0,0,1-1.01.505,2.925,2.925,0,0,1-1.155.071,3.531,3.531,0,0,1-2.167-1.2,2.91,2.91,0,0,1-.545-1.015,2.87,2.87,0,0,1-.1-1.122A2.9,2.9,0,0,1,123.008,176.229Zm1.32.733a1.489,1.489,0,0,0-.187.595,1.558,1.558,0,0,0,.06.59,1.536,1.536,0,0,0,.28.521,1.605,1.605,0,0,0,1.643.546,1.515,1.515,0,0,0,.535-.258,1.555,1.555,0,0,0,.593-1.069,1.519,1.519,0,0,0-.063-.592,1.624,1.624,0,0,0-1.331-1.106,1.528,1.528,0,0,0-1.122.3,1.485,1.485,0,0,0-.409.472Z" transform="translate(-93.053 -141.669)" fill="#1a1818"/><path d="M132.2,177.853l-2.338,5.036-1.309-.609,2.339-5.036Z" transform="translate(-93.508 -141.863)" fill="#1a1818"/><path d="M134.708,178.913l-1.622,4.016,1.6.648-.458,1.133-2.944-1.19,2.082-5.151Z" transform="translate(-93.718 -141.95)" fill="#1a1818"/><path d="M142.613,187.325l-1.731-.488-.748-2.43-.579,2.057-1.39-.392,1.506-5.351,2.162.609a2.2,2.2,0,0,1,.743.351,1.524,1.524,0,0,1,.626,1.13,1.879,1.879,0,0,1-.071.669,1.627,1.627,0,0,1-.573.906,1.54,1.54,0,0,1-1.012.269Zm-2.224-3.818.263.074a1.046,1.046,0,0,0,.68,0,.68.68,0,0,0,.275-.977,1.053,1.053,0,0,0-.584-.349l-.263-.074Z" transform="translate(-94.248 -142.131)" fill="#1a1818"/><path d="M147.845,183.98l-1.681-.345-.186.91,1.588.324-.245,1.2-1.588-.324-.192.944,1.682.345-.245,1.2-3.1-.629L145,182.158l3.1.629Z" transform="translate(-94.684 -142.237)" fill="#1a1818"/><path d="M152.316,184.649l-1.722-.241-.129.919,1.574.219-.168,1.212-1.574-.219L150,188.7l-1.43-.2.766-5.508,3.147.439Z" transform="translate(-95.047 -142.306)" fill="#1a1818"/><path d="M155.009,183.66l-.485,5.535-1.438-.126.486-5.535Z" transform="translate(-95.393 -142.346)" fill="#1a1818"/><path d="M156.421,189.391l.168-5.552,1.443.044,2.564,3.475.1-3.4,1.437.044-.168,5.552-1.435-.044-2.562-3.475-.1,3.394Z" transform="translate(-95.65 -142.369)" fill="#1a1818"/><path d="M165.4,183.685l.345,5.544-1.441.09-.345-5.543Z" transform="translate(-96.23 -142.357)" fill="#1a1818"/><path d="M167.348,189.1l-.738-5.508,1.43-.192,3.1,3.01-.452-3.366,1.416-.19.74,5.508-1.416.19-3.1-3.01.452,3.366Z" transform="translate(-96.433 -142.294)" fill="#1a1818"/><path d="M176.884,184.32l2.785-.672a7.932,7.932,0,0,1,.157.787,2.777,2.777,0,0,1,.014.686,2.684,2.684,0,0,1-.227.847,2.453,2.453,0,0,1-.472.691,2.931,2.931,0,0,1-.683.518,3.369,3.369,0,0,1-.845.324,3.147,3.147,0,0,1-1.2.069,2.652,2.652,0,0,1-1.032-.368,2.708,2.708,0,0,1-.8-.763,3.462,3.462,0,0,1-.563-2.32,2.616,2.616,0,0,1,.364-1.039,2.725,2.725,0,0,1,.766-.8,3.306,3.306,0,0,1,1.131-.493,3,3,0,0,1,1.574,0,2.6,2.6,0,0,1,1.283.888l-1.2.872a1.4,1.4,0,0,0-.629-.521,1.25,1.25,0,0,0-.724-.03,1.4,1.4,0,0,0-.544.257,1.281,1.281,0,0,0-.359.444,1.647,1.647,0,0,0-.157.595,2.219,2.219,0,0,0,.061.713,2.247,2.247,0,0,0,.244.615,1.471,1.471,0,0,0,.392.444,1.241,1.241,0,0,0,.524.227,1.552,1.552,0,0,0,.645-.03,1.719,1.719,0,0,0,.39-.143,1.085,1.085,0,0,0,.315-.234.874.874,0,0,0,.189-.329,1.1,1.1,0,0,0,.039-.434l-1.154.279Z" transform="translate(-96.998 -142.206)" fill="#1a1818"/><path d="M187.187,180.365a1.542,1.542,0,0,0-1.374-.132,1.5,1.5,0,0,0-.519.324,1.448,1.448,0,0,0-.331.472,1.478,1.478,0,0,0-.121.563,1.674,1.674,0,0,0,.433,1.136,1.473,1.473,0,0,0,1.621.376,1.674,1.674,0,0,0,.955-.993l.607,1.6-.12.1a4.249,4.249,0,0,1-.516.382,3.025,3.025,0,0,1-.51.253,2.892,2.892,0,0,1-2.192-.052,3.05,3.05,0,0,1-.936-.645,3.005,3.005,0,0,1-.84-2.2,2.935,2.935,0,0,1,1.888-2.582,3.026,3.026,0,0,1,.629-.167,4.007,4.007,0,0,1,.707-.036Z" transform="translate(-97.719 -141.977)" fill="#1a1818"/><path d="M188.645,180.775a2.861,2.861,0,0,1,.453-3.237,3.533,3.533,0,0,1,2.227-1.091,2.936,2.936,0,0,1,1.15.131,2.841,2.841,0,0,1,.982.557,3.021,3.021,0,0,1,1.015,2.071,2.853,2.853,0,0,1-.157,1.117,2.927,2.927,0,0,1-.6.988,3.526,3.526,0,0,1-2.225,1.089,2.872,2.872,0,0,1-2.833-1.627ZM190,180.11a1.469,1.469,0,0,0,.381.494,1.531,1.531,0,0,0,1.1.357,1.634,1.634,0,0,0,1.078-.529,1.563,1.563,0,0,0,.315-.508,1.532,1.532,0,0,0,.094-.587,1.563,1.563,0,0,0-.538-1.1,1.53,1.53,0,0,0-.521-.286,1.621,1.621,0,0,0-1.67.461,1.522,1.522,0,0,0-.305.507,1.543,1.543,0,0,0-.09.585A1.474,1.474,0,0,0,190,180.11Z" transform="translate(-98.104 -141.801)" fill="#1a1818"/><path d="M196.779,179.724l-2.184-5.193,1.205-.766,2.527,1.9-.656-3.091,1.205-.766,3.777,4.181-1.212.771-2.118-2.45.609,3.4-.485.315L196.683,176l1.311,2.955Z" transform="translate(-98.586 -141.443)" fill="#1a1818"/><path d="M205.221,174.088l-1.138.888-3.418-4.378,1.811-1.416a1.962,1.962,0,0,1,1.427-.5,2.139,2.139,0,0,1,1.687,2.161,1.969,1.969,0,0,1-.829,1.259l-.673.526Zm-1.851-2.37.378-.294q.629-.489.2-1.036t-1.053-.057l-.378.3Z" transform="translate(-99.052 -141.203)" fill="#1a1818"/><path d="M210.209,168.661l-1.522,1.393.408.936-1.136,1.039-2.191-5.525,1.163-1.064,5.31,2.675-1.135,1.04Zm-1.024-.551-1.731-.925.77,1.8Z" transform="translate(-99.445 -140.955)" fill="#1a1818"/><path d="M213.158,166.944l-4.126-3.719.966-1.073,4.309.291-2.518-2.274.962-1.067,4.126,3.719-.962,1.067-4.309-.291,2.518,2.274Z" transform="translate(-99.696 -140.468)" fill="#1a1818"/><path d="M216.767,158.616l-3.527-.105,1.032-1.382,1.832.082-.6-1.731,1.032-1.382,1.1,3.357,2.136,1.6-.864,1.157Z" transform="translate(-100.02 -140.084)" fill="#1a1818"/><path d="M219.147,150.2l4.757,2.869-.744,1.235-4.757-2.867Z" transform="translate(-100.416 -139.781)" fill="#1a1818"/><path d="M224.754,151.4l-4.949-2.518.655-1.287,4.236-.836-3.026-1.541.652-1.281,4.949,2.518-.652,1.281-4.236.836,3.026,1.541Z" transform="translate(-100.524 -139.301)" fill="#1a1818"/><path d="M226.208,139.57a1.542,1.542,0,0,0-1.026.924,1.509,1.509,0,0,0-.113.6,1.448,1.448,0,0,0,.453,1.032,1.575,1.575,0,0,0,.519.331,1.608,1.608,0,0,0,.611.12,1.478,1.478,0,0,0,1.374-.944,1.676,1.676,0,0,0-.087-1.375l1.586.629v.157a4.277,4.277,0,0,1-.068.639,3,3,0,0,1-.157.548,2.852,2.852,0,0,1-.611.944,2.885,2.885,0,0,1-.913.629,3.037,3.037,0,0,1-1.1.252,2.99,2.99,0,0,1-2.191-.87,2.936,2.936,0,0,1-.622-3.141,3.089,3.089,0,0,1,.307-.579,3.915,3.915,0,0,1,.452-.546Z" transform="translate(-100.813 -138.92)" fill="#1a1818"/></g><g transform="translate(11.785 20.109)" opacity="0.18"><path d="M108.52,86.754l-5.16-1.468A57.679,57.679,0,0,1,133.029,55.83l2.658,4.625a52.5,52.5,0,0,0-27.167,26.3Z" transform="translate(-103.36 -55.824)" fill="url(#b)" style="mix-blend-mode:screen;isolation:isolate"/><path d="M144.746,75.156a36.387,36.387,0,0,0-19.671,16.856l-10.386-2.973A46.99,46.99,0,0,1,139.383,65.87Z" transform="translate(-104.232 -56.596)" fill="url(#c)" style="mix-blend-mode:screen;isolation:isolate"/><path d="M148.278,87.547h1.006V90.2h-1.006V91.72h-.766v1.416h1.015v1.035h.757v2.861h-.757v1.44h-.867V99.3l-6.413-1.827v-.444h-.932V94.172h.932V91.718h-.932V90.2H138.65V88.433h1.043v-.886h1.559V86.384h1.681V83.551H146.6v2.833h1.681Z" transform="translate(-106.073 -57.955)" fill="url(#d)" style="mix-blend-mode:screen;isolation:isolate"/><path d="M169.393,102.683V96.092h-.9v-.944h-4.2v-1.7h.7v-.886h.59V91.316h1.218V89.671h-1.216v-.979H164.3V66.414h.9V64.807h.812V63.219h-.812v-1.6h-2.622V60.6h-1.015V59.85H152.9V60.6h-1v1.975h1.006V98.029h-.924v.387l18.305,5.234v-.969Zm-12.157-4.652h-3.028v-4.74h3.028Zm0-9.332h-3.028V63.219h3.028Z" transform="translate(-107.092 -56.133)" fill="url(#e)" style="mix-blend-mode:screen;isolation:isolate"/><path d="M187.983,109.912h.721v.582l-16.782-4.8h1.533v-1h.988V101.42h-.434v-1.375h-.444v-.9H171.82V95.308h.776v-.944h.969V91.275h-.738V90.148h-.881V88.1h.877V87.049h1.416v-1h4.033v1h1.416V88.1h.886v2.046h-.886v5.8h1.136v1.94h-1.136v3.047h3.749V104.7h.988v1H185v-4.764h.787v-.886h.979V99.011H190.1v2.779h-1.574v2.142H188Z" transform="translate(-108.624 -58.147)" fill="url(#f)" style="mix-blend-mode:screen;isolation:isolate"/><path d="M190.93,112.76h4.911v1.4Z" transform="translate(-110.093 -60.201)" fill="url(#g)" style="mix-blend-mode:screen;isolation:isolate"/><path d="M208.275,109.292a46.862,46.862,0,0,1-.277,5.124l-10.366-2.963c.046-.721.065-1.44.065-2.161a36.3,36.3,0,0,0-24.077-34.136l5.351-9.285A46.828,46.828,0,0,1,208.275,109.292Z" transform="translate(-108.763 -56.596)" fill="url(#h)" style="mix-blend-mode:screen;isolation:isolate"/><path d="M219.4,108.524a57.577,57.577,0,0,1-.562,8.014l-5.143-1.457a51.346,51.346,0,0,0,.415-6.564,52.22,52.22,0,0,0-31.946-48.067l2.675-4.625A57.452,57.452,0,0,1,219.4,108.518Z" transform="translate(-109.422 -55.826)" fill="url(#i)" style="mix-blend-mode:screen;isolation:isolate"/></g></g></g></svg>