<svg xmlns="http://www.w3.org/2000/svg" xmlns:xlink="http://www.w3.org/1999/xlink" width="400" height="400" viewBox="0 0 400 400">
  <defs>
    <clipPath id="clip-path">
      <rect id="Rectangle_3659" data-name="Rectangle 3659" width="400" height="400" transform="translate(4961 6772)" fill="#fff" stroke="#707070" stroke-width="1"/>
    </clipPath>
  </defs>
  <g id="Mask_Group_21" data-name="Mask Group 21" transform="translate(-4961 -6772)" clip-path="url(#clip-path)">
    <g id="zueitina-logo" transform="translate(4958.659 6750.148)">
      <path id="Path_20327" data-name="Path 20327" d="M383.994,163.319S323.779,45.413,235.476,25.23c0,0-85.78-18.838-150.7,32.462,0,0-50.291,30.275-76.361,105.628,0,0,59.037-80.23,119.252-90.995,0,0,97.722-22.707,148.518,90.995Z" fill="#3457be"/>
      <path id="Path_20328" data-name="Path 20328" d="M8.41,280.384S68.624,398.29,156.928,418.474c0,0,85.78,18.838,150.7-32.462,0,0,50.291-30.275,76.361-105.628,0,0-59.037,80.23-119.252,90.995,0,0-97.722,22.707-148.518-90.995Z" fill="#3457be"/>
      <g id="Group_2401" data-name="Group 2401">
        <g id="Group_2400" data-name="Group 2400">
          <path id="Path_20329" data-name="Path 20329" d="M56.346,229.084c-.673,4.037-2.018,12.278-3.028,15.138H9.251l-.841-1.514c10.933-15.979,21.025-30.78,31.957-47.1H29.434c-8.242,0-9.924,1.009-11.269,3.028a23.39,23.39,0,0,0-3.2,7.737l-2.691-.168c.336-6.391.673-12.11,1.009-16.315h1.85c1.346,1.85,2.018,2.018,4.71,2.018H53.991l.673,1.177c-10.6,15.642-20.856,30.948-31.285,46.759a74.019,74.019,0,0,0,10.26.5c6.56,0,12.615-.5,14.97-2.691,2.018-1.85,3.364-4.2,5.214-9.419Z" fill="#cb0000"/>
          <path id="Path_20330" data-name="Path 20330" d="M117.4,194.772c-4.541.336-6.56,2.018-7.064,4.878-.5,2.355-.673,5.382-.673,10.933v8.746c0,8.746-1.346,15.474-6.055,20.184A21.362,21.362,0,0,1,88.472,245.4c-5.551,0-10.765-1.177-14.633-4.037-4.71-3.7-7.064-9.755-7.064-19.174v-18.5c0-7.737-.841-8.242-7.064-8.914v-2.859H84.6v2.859c-6.223.5-7.064,1.009-7.064,8.914v16.651c0,12.11,4.541,19.679,13.624,19.679,10.092,0,14.465-7.569,14.465-21.193v-8.242a53.571,53.571,0,0,0-.841-10.933c-.5-2.859-2.355-4.541-7.905-4.878v-2.859H117.57v2.859Z" fill="#cb0000"/>
          <path id="Path_20331" data-name="Path 20331" d="M165,230.766c-.5,3.7-2.187,11.1-2.859,13.456H120.093v-2.859c7.064-.673,7.905-1.009,7.905-7.905V203.014c0-7.064-.841-7.569-6.728-8.073v-2.859h38.854c0,1.346.5,7.064.841,12.278l-3.028.336a15.406,15.406,0,0,0-3.364-7.064c-1.514-1.346-3.7-2.018-8.073-2.018h-4.2c-3.2,0-3.364.168-3.364,2.859V215.46h5.551c6.9,0,8.073-.5,9.083-6.055h2.859V225.72H153.4c-1.009-5.719-2.187-6.055-9.083-6.055h-5.551v13.624c0,3.869.336,5.887,2.018,6.56,1.346.673,4.541.841,7.569.841,4.037,0,7.232-.5,9.083-2.523a24.931,24.931,0,0,0,4.541-8.073Z" fill="#cb0000"/>
          <path id="Path_20332" data-name="Path 20332" d="M168.87,244.222v-2.859c6.223-.673,6.9-1.009,6.9-7.905V202.846c0-6.9-.841-7.4-6.9-7.905v-2.859h24.725v2.859c-6.223.5-6.9,1.009-6.9,7.905v30.612c0,6.9.673,7.4,6.9,7.905v2.859Z" fill="#cb0000"/>
          <path id="Path_20333" data-name="Path 20333" d="M245.4,206.041c-1.009-4.2-2.187-6.9-3.7-8.578-1.514-1.346-3.532-1.85-8.746-1.85h-3.7v37.844c0,6.9.841,7.4,8.242,7.905v2.859H210.583v-2.859c6.9-.673,7.905-1.009,7.905-7.905V195.613H215.8c-7.4,0-8.746,1.009-9.924,2.187-1.346,1.346-2.523,4.2-3.532,8.242h-3.028c.336-6.055.841-11.942,1.009-16.147h2.018c1.346,1.85,2.355,2.018,4.71,2.018H240.69a5.919,5.919,0,0,0,4.878-2.018h1.85c0,3.364.5,10.765,1.009,15.811Z" fill="#cb0000"/>
          <path id="Path_20334" data-name="Path 20334" d="M253.641,244.222v-2.859c6.223-.673,6.9-1.009,6.9-7.905V202.846c0-6.9-.841-7.4-6.9-7.905v-2.859h24.725v2.859c-6.223.5-6.9,1.009-6.9,7.905v30.612c0,6.9.673,7.4,6.9,7.905v2.859Z" fill="#cb0000"/>
          <path id="Path_20335" data-name="Path 20335" d="M341.776,194.772c-4.373.336-6.055,1.346-6.56,5.214a88.915,88.915,0,0,0-.841,13.288v31.789h-3.869L295.522,204.7h-.168v18.165a86.692,86.692,0,0,0,.673,12.783c.336,3.7,1.85,5.214,7.905,5.551v2.859H283.917v-2.859c4.541-.5,6.56-1.682,6.728-5.214a87.987,87.987,0,0,0,.841-13.119v-16.82c0-5.214-.168-6.56-1.682-8.578-1.514-1.85-3.364-2.523-6.728-2.859v-2.859h15.138l32.294,35.321h.168V212.937A130.578,130.578,0,0,0,330,199.818c-.336-3.7-2.018-5.046-8.073-5.382v-2.859h20.015v3.2Z" fill="#cb0000"/>
          <path id="Path_20336" data-name="Path 20336" d="M372.893,244.222v-2.859c4.878-.841,5.214-1.682,4.037-5.214-.841-2.355-2.018-5.887-3.532-9.251H357.419c-1.009,2.691-2.018,5.551-3.028,8.914-1.177,3.7-1.009,4.878,4.878,5.551v2.859H340.935l.168-2.859c5.551-.673,6.56-1.682,9.251-8.578l16.82-40.872,4.2-1.009c5.214,13.96,10.428,27.921,15.811,41.713,2.691,7.064,3.869,8.242,9.083,8.914v2.859H372.893Zm-7.064-38.854h-.168c-2.355,5.719-4.541,11.606-6.56,17.324h12.951Z" fill="#cb0000"/>
        </g>
      </g>
    </g>
  </g>
</svg>
